<svg width="90" height="91" viewBox="0 0 90 91" fill="none" xmlns="http://www.w3.org/2000/svg">
<path d="M61.3333 48.9508H42.3333V45.7842H61.3333V48.9508ZM61.3333 33.1175H42.3333V36.2842H61.3333V33.1175ZM61.3333 58.4508H42.3333V61.6175H61.3333V58.4508ZM36 33.1175H29.6667V36.2842H36V33.1175ZM36 45.7842H29.6667V48.9508H36V45.7842ZM36 58.4508H29.6667V61.6175H36V58.4508ZM74 75.8675V14.1175H58.0083C57.2737 10.5075 54.0753 7.78418 50.25 7.78418H40.75C36.9247 7.78418 33.7295 10.5075 32.9917 14.1175H17V75.8675C17 80.2343 20.553 83.7842 24.9167 83.7842H66.0833C70.447 83.7842 74 80.2343 74 75.8675ZM36 17.2842V15.7008C36 13.082 38.1312 10.9508 40.75 10.9508H50.25C52.8688 10.9508 55 13.082 55 15.7008V17.2842H70.8333V75.8675C70.8333 78.4864 68.7022 80.6175 66.0833 80.6175H24.9167C22.2978 80.6175 20.1667 78.4864 20.1667 75.8675V17.2842H36Z" fill="#8EB0EC"/>
</svg>
