<svg width="90" height="91" viewBox="0 0 90 91" fill="none" xmlns="http://www.w3.org/2000/svg">
<path d="M22.2188 36.7842L18.8437 40.1592L17.5781 38.8936C17.0156 38.3311 16.1719 38.3311 15.6094 38.8936C15.0469 39.4561 15.0469 40.2998 15.6094 40.8623L17.1562 42.4092C17.5781 42.8311 18.2812 43.1123 18.8437 43.1123C19.4062 43.1123 20.1094 42.8311 20.5312 42.4092L24.0469 38.8936C24.6094 38.3311 24.6094 37.4873 24.0469 36.9248C23.625 36.2217 22.6406 36.2217 22.2188 36.7842ZM29.1094 41.1436H54.7031C55.5469 41.1436 56.1094 40.5811 56.1094 39.7373C56.1094 38.8936 55.5469 38.3311 54.7031 38.3311H29.1094C28.2656 38.3311 27.7031 38.8936 27.7031 39.7373C27.7031 40.5811 28.2656 41.1436 29.1094 41.1436ZM22.2188 52.1123L18.8437 55.4873L17.5781 54.2217C17.0156 53.6592 16.1719 53.6592 15.6094 54.2217C15.0469 54.7842 15.0469 55.6279 15.6094 56.1904L17.1562 57.7373C17.5781 58.1592 18.2812 58.4404 18.8437 58.4404C19.5469 58.4404 20.1094 58.1592 20.5312 57.7373L24.0469 54.2217C24.6094 53.6592 24.6094 52.8154 24.0469 52.2529C23.625 51.5498 22.6406 51.5498 22.2188 52.1123ZM41.9062 53.6592H29.1094C28.2656 53.6592 27.7031 54.2217 27.7031 55.0654C27.7031 55.9092 28.2656 56.4717 29.1094 56.4717H41.9062C42.75 56.4717 43.3125 55.9092 43.3125 55.0654C43.3125 54.2217 42.6094 53.6592 41.9062 53.6592ZM22.2188 67.4404L18.8437 70.8154L17.5781 69.5498C17.0156 68.9873 16.1719 68.9873 15.6094 69.5498C15.0469 70.1123 15.0469 70.9561 15.6094 71.5186L17.1562 73.0654C17.5781 73.4873 18.2812 73.7686 18.8437 73.7686C19.5469 73.7686 20.1094 73.4873 20.5312 73.0654L24.0469 69.5498C24.6094 68.9873 24.6094 68.1436 24.0469 67.5811C23.625 66.8779 22.6406 66.8779 22.2188 67.4404ZM39.9375 68.9873H28.9688C28.125 68.9873 27.5625 69.5498 27.5625 70.3936C27.5625 71.2373 28.125 71.7998 28.9688 71.7998H39.9375C40.7812 71.7998 41.3437 71.2373 41.3437 70.3936C41.3437 69.5498 40.7812 68.9873 39.9375 68.9873Z" fill="#8EB0EC"/>
<path d="M65.5312 46.3467V16.3936C65.5312 12.8779 62.7187 10.0654 59.2031 10.0654H54.7031V6.40918C54.7031 5.56543 54.1406 5.00293 53.2969 5.00293C52.4531 5.00293 51.8906 5.56543 51.8906 6.40918V10.0654H42.8906V6.40918C42.8906 5.56543 42.3281 5.00293 41.4844 5.00293C40.6406 5.00293 40.0781 5.56543 40.0781 6.40918V10.0654H31.0781V6.40918C31.0781 5.56543 30.5156 5.00293 29.6719 5.00293C28.8281 5.00293 28.2656 5.56543 28.2656 6.40918V10.0654H19.2656V6.40918C19.2656 5.56543 18.7031 5.00293 17.8594 5.00293C17.0156 5.00293 16.4531 5.56543 16.4531 6.40918V10.0654H11.9531C8.4375 10.0654 5.625 12.8779 5.625 16.3936V78.9717C5.625 82.3467 8.4375 85.1592 11.9531 85.1592H56.9531C59.2031 86.0029 61.5937 86.5654 64.125 86.5654C75.2344 86.5654 84.375 77.5654 84.375 66.4561C84.375 55.7686 76.0781 47.0498 65.5312 46.3467ZM11.9531 12.8779H16.4531V16.5342C16.4531 17.3779 17.0156 17.9404 17.8594 17.9404C18.7031 17.9404 19.2656 17.3779 19.2656 16.5342V12.8779H28.2656V16.5342C28.2656 17.3779 28.8281 17.9404 29.6719 17.9404C30.5156 17.9404 31.0781 17.3779 31.0781 16.5342V12.8779H40.0781V16.5342C40.0781 17.3779 40.6406 17.9404 41.4844 17.9404C42.3281 17.9404 42.8906 17.3779 42.8906 16.5342V12.8779H51.8906V16.5342C51.8906 17.3779 52.4531 17.9404 53.2969 17.9404C54.1406 17.9404 54.7031 17.3779 54.7031 16.5342V12.8779H59.2031C61.1719 12.8779 62.7187 14.4248 62.7187 16.3936V24.9717H8.4375V16.3936C8.4375 14.4248 9.98438 12.8779 11.9531 12.8779ZM11.9531 82.3467C9.98438 82.3467 8.4375 80.7998 8.4375 78.9717V27.7842H62.7187V46.3467C52.3125 47.0498 44.0156 55.7686 44.0156 66.4561C44.0156 72.9248 47.1094 78.8311 52.0312 82.4873H11.9531V82.3467ZM73.9688 80.6592L73.5469 79.9561C73.125 79.2529 72.2812 79.1123 71.5781 79.3936C70.875 79.8154 70.7344 80.6592 71.0156 81.3623L71.4375 82.0654C69.6094 82.9092 67.5 83.4717 65.3906 83.7529V82.9092C65.3906 82.0654 64.8281 81.5029 63.9844 81.5029C63.1406 81.5029 62.5781 82.0654 62.5781 82.9092V83.7529C60.4688 83.6123 58.3594 83.0498 56.5312 82.0654L56.9531 81.3623C57.375 80.6592 57.0937 79.8154 56.3906 79.3936C55.6875 78.9717 54.8438 79.2529 54.4219 79.9561L54 80.6592C52.3125 79.5342 50.7656 77.9873 49.6406 76.2998L50.3438 75.8779C51.0469 75.4561 51.1875 74.6123 50.9062 73.9092C50.4844 73.2061 49.6406 73.0654 48.9375 73.3467L48.2344 73.7686C47.3906 71.9404 46.8281 69.8311 46.5469 67.7217H47.8125C48.6562 67.7217 49.2188 67.1592 49.2188 66.3154C49.2188 65.4717 48.6562 64.9092 47.8125 64.9092H46.9688C47.1094 62.7998 47.6719 60.6904 48.6562 58.8623L49.3594 59.2842C49.6406 59.4248 49.7812 59.4248 50.0625 59.4248C50.4844 59.4248 51.0469 59.1436 51.3281 58.7217C51.75 58.0186 51.4687 57.1748 50.7656 56.7529L50.0625 56.3311C51.1875 54.6436 52.7344 53.0967 54.4219 51.9717L54.8438 52.6748C55.125 53.0967 55.5469 53.3779 56.1094 53.3779C56.3906 53.3779 56.5313 53.3779 56.8125 53.2373C57.5156 52.8154 57.6562 51.9717 57.375 51.2686L56.9531 50.5654C58.7812 49.7217 60.8906 49.1592 63 48.8779V50.0029C63 50.8467 63.5625 51.4092 64.4062 51.4092C65.25 51.4092 65.8125 50.8467 65.8125 50.0029V49.1592C67.9219 49.2998 70.0312 49.8623 71.8594 50.8467L71.4375 51.5498C71.0156 52.2529 71.2969 53.0967 72 53.5186C72.2812 53.6592 72.4219 53.6592 72.7031 53.6592C73.125 53.6592 73.6875 53.3779 73.9688 52.9561L74.3906 52.2529C76.0781 53.3779 77.625 54.9248 78.75 56.6123L77.625 57.0342C76.9219 57.4561 76.7812 58.2998 77.0625 59.0029C77.3438 59.4248 77.7656 59.7061 78.3281 59.7061C78.6094 59.7061 78.75 59.7061 79.0312 59.5654L79.7344 59.1436C80.5781 60.9717 81.1406 63.0811 81.4219 65.1904H80.5781C79.7344 65.1904 79.1719 65.7529 79.1719 66.5967C79.1719 67.4404 79.7344 68.0029 80.5781 68.0029H81.4219C81.2812 70.1123 80.7188 72.2217 79.7344 74.0498L79.0312 73.6279C78.3281 73.2061 77.4844 73.4873 77.0625 74.1904C76.6406 74.8936 76.9219 75.7373 77.625 76.1592L78.3281 76.5811C77.2031 77.9873 75.7969 79.5342 73.9688 80.6592Z" fill="#8EB0EC"/>
<path d="M67.7812 68.1436C68.0625 67.5811 68.2031 67.0186 68.2031 66.4561C68.2031 64.7686 67.0781 63.2217 65.5312 62.6592V55.0654C65.5312 54.2217 64.9687 53.6592 64.125 53.6592C63.2812 53.6592 62.7187 54.2217 62.7187 55.0654V62.6592C61.1719 63.2217 60.0469 64.7686 60.0469 66.4561C60.0469 68.7061 61.875 70.5342 64.125 70.5342C64.6875 70.5342 65.25 70.3936 65.8125 70.1123L69.0469 73.3467C69.3281 73.6279 69.75 73.7686 70.0312 73.7686C70.3125 73.7686 70.7344 73.6279 71.0156 73.3467C71.5781 72.7842 71.5781 71.9404 71.0156 71.3779L67.7812 68.1436ZM63 66.4561C63 65.7529 63.5625 65.1904 64.2656 65.1904C64.9688 65.1904 65.5312 65.7529 65.5312 66.4561C65.5312 67.1592 64.9688 67.7217 64.2656 67.7217C63.4219 67.5811 63 67.0186 63 66.4561Z" fill="#8EB0EC"/>
</svg>
