<svg width="90" height="90" viewBox="0 0 90 90" fill="none" xmlns="http://www.w3.org/2000/svg">
<path d="M36.543 46.3755H82.0001V37.6001H37.6001M38.9918 46.3755H78.1738L74.5004 82.0001H42.6651L42.1503 77.1551" stroke="#8EB0EC" stroke-width="3" stroke-miterlimit="10" stroke-linecap="round" stroke-linejoin="round"/>
<path d="M21.023 55.5713C18.3653 58.232 16.7157 61.8994 16.7119 65.9258C16.7093 68.6056 17.4246 71.1181 18.6753 73.2817H16.7119C11.9005 73.2817 8 77.185 8 81.9999H30.009C38.8721 81.9999 46.0571 74.8097 46.0571 65.9402C46.0571 61.8971 44.4242 58.2357 41.7824 55.5805M19.1573 73.2817H24.0482" stroke="#8EB0EC" stroke-width="3" stroke-miterlimit="10" stroke-linecap="round" stroke-linejoin="round"/>
<path d="M58.668 48.1486L82.0001 72.4857M39.7583 55.6095H23.8986C21.5404 55.6095 19.6287 53.7026 19.6287 51.3505C19.6287 48.9983 21.5404 47.0915 23.8986 47.0915H39.7583C42.1165 47.0915 44.0282 48.9983 44.0282 51.3505C44.0282 53.7026 42.1165 55.6095 39.7583 55.6095ZM36.7084 47.0915H26.9485V12.8674C26.9485 10.1792 29.1334 8 31.8285 8C34.5235 8 36.7084 10.1792 36.7084 12.8674V47.0915Z" stroke="#8EB0EC" stroke-width="3" stroke-miterlimit="10" stroke-linecap="round" stroke-linejoin="round"/>
</svg>
