<svg width="220" height="50" viewBox="0 0 220 50" fill="none" xmlns="http://www.w3.org/2000/svg">
<g clip-path="url(#clip0_1_69)">
<path d="M43.5589 8.10929C41.2128 5.55264 38.358 3.51113 35.1764 2.11493C31.9948 0.718729 28.5562 -0.00155251 25.0798 2.51251e-06H-0.00537109V24.9992C-0.00537109 38.7845 11.2471 50 25.0798 50C28.5563 50.0013 31.9949 49.2807 35.1765 47.8842C38.3581 46.4877 41.2129 44.446 43.5589 41.8891C47.8132 37.2868 50.1723 31.2567 50.1666 24.9992C50.1723 18.7417 47.8132 12.7116 43.5589 8.10929ZM38.9077 38.7717C37.0947 40.5843 34.9403 42.0223 32.5681 43.003C30.196 43.9837 27.6528 44.4877 25.0846 44.4862C19.8996 44.4811 14.9282 42.4266 11.2612 38.7734C7.59423 35.1201 5.531 30.1665 5.52417 24.9992V5.50899H25.0814C29.1449 5.51389 33.1063 6.77797 36.4168 9.12613C39.7274 11.4743 42.2233 14.7903 43.5589 18.6149C44.275 20.6677 44.6395 22.8259 44.637 24.9992C44.6396 27.1725 44.2751 29.3308 43.5589 31.3835C42.587 34.1641 40.997 36.6897 38.9077 38.7717Z" fill="#8EB0EC"/>
<path d="M24.2197 23.0026H20.9449C20.9445 22.2237 20.6338 21.4767 20.0811 20.9259C19.5283 20.3751 18.7788 20.0655 17.9972 20.065C17.2157 20.0659 16.4664 20.3757 15.9138 20.9264C15.3612 21.4771 15.0504 22.2238 15.0495 23.0026H11.7747C11.7764 21.3583 12.4324 19.7818 13.599 18.619C14.7655 17.4562 16.3473 16.8019 17.9972 16.7998C19.6471 16.8019 21.2289 17.4562 22.3954 18.619C23.5619 19.7818 24.218 21.3583 24.2197 23.0026Z" fill="#8EB0EC"/>
<path d="M25.5913 36.7287C23.1427 36.7261 20.7952 35.7558 19.0636 34.0305C17.3321 32.3052 16.358 29.9658 16.355 27.5256V26.9844H19.6298V27.5289C19.6298 29.1049 20.2581 30.6165 21.3764 31.7309C22.4947 32.8454 24.0114 33.4715 25.5929 33.4715C27.1744 33.4715 28.6911 32.8454 29.8094 31.7309C30.9277 30.6165 31.556 29.1049 31.556 27.5289V26.9876H34.8324V27.5289C34.8286 29.9693 33.8534 32.3085 32.1209 34.0333C30.3884 35.758 28.0401 36.7274 25.5913 36.7287Z" fill="#8EB0EC"/>
<path d="M33.1902 15.8574L34.2925 18.803L37.2483 19.9016L34.2925 21.0002L33.1902 23.9458L32.0862 21.0002L29.1321 19.9016L32.0862 18.803L33.1902 15.8574Z" fill="#8EB0EC"/>
<path d="M24.2198 23.003H20.9433C20.9429 22.224 20.6322 21.4771 20.0795 20.9263C19.5268 20.3754 18.7773 20.0658 17.9956 20.0654C17.214 20.0658 16.4645 20.3754 15.9118 20.9263C15.3591 21.4771 15.0484 22.224 15.0479 23.003H11.7715C11.7736 21.3587 12.4301 19.7824 13.597 18.6198C14.7638 17.4573 16.3457 16.8035 17.9956 16.8018C19.6456 16.8035 21.2275 17.4573 22.3943 18.6198C23.5612 19.7824 24.2177 21.3587 24.2198 23.003Z" fill="#8EB0EC"/>
<path d="M34.8275 26.9844V27.5289C34.8249 29.9694 33.8511 32.3094 32.1195 34.0353C30.388 35.7612 28.0402 36.7321 25.5912 36.7351C23.1419 36.7325 20.7937 35.7618 19.0618 34.0358C17.3299 32.3099 16.3558 29.9697 16.3533 27.5289V26.9892H19.6314V27.5289C19.6314 29.1049 20.2596 30.6165 21.3779 31.7309C22.4962 32.8454 24.0129 33.4715 25.5944 33.4715C27.1759 33.4715 28.6927 32.8454 29.8109 31.7309C30.9292 30.6165 31.5575 29.1049 31.5575 27.5289V26.9892L34.8275 26.9844Z" fill="#8EB0EC"/>
<path d="M37.2483 19.9015L34.2925 21.0001L33.1902 23.9457L32.0878 21.0001L29.1321 19.9015L32.0878 18.8029L33.1902 15.8589L34.2925 18.8029L37.2483 19.9015Z" fill="#8EB0EC"/>
<path d="M88.3629 38.9756C87.9863 39.1918 87.5582 39.3027 87.1236 39.2968C86.8024 39.3049 86.4829 39.2467 86.1854 39.1259C85.8878 39.0051 85.6184 38.8244 85.3943 38.595C85.166 38.3691 84.9864 38.0992 84.8664 37.8018C84.7464 37.5043 84.6886 37.1856 84.6964 36.8652C84.6877 36.5424 84.7451 36.2213 84.8651 35.9214C84.9851 35.6215 85.1651 35.3491 85.3943 35.1209C85.6188 34.892 85.8882 34.7117 86.1857 34.5912C86.4832 34.4708 86.8025 34.4127 87.1236 34.4207C87.5565 34.4113 87.9835 34.5226 88.3565 34.7419C88.7069 34.9481 88.9875 35.2541 89.1623 35.6204L90.1679 35.0438C89.9038 34.4965 89.4819 34.0402 88.956 33.7332C88.4017 33.4068 87.7673 33.24 87.1236 33.2514C86.6437 33.2378 86.1661 33.3228 85.7206 33.501C85.275 33.6793 84.871 33.9469 84.5337 34.2873C84.1948 34.623 83.9282 35.0241 83.75 35.4659C83.5718 35.9077 83.4859 36.3811 83.4974 36.8571C83.4857 37.3332 83.5715 37.8066 83.7497 38.2485C83.9279 38.6903 84.1947 39.0913 84.5337 39.4269C84.8707 39.7679 85.2746 40.036 85.7202 40.2145C86.1658 40.393 86.6435 40.4781 87.1236 40.4645C87.7671 40.4738 88.4009 40.3071 88.956 39.9826C89.4904 39.6751 89.9293 39.2266 90.2244 38.6865L89.2042 38.0938C89.0143 38.462 88.7223 38.7681 88.3629 38.9756Z" fill="#404040"/>
<path d="M92.6129 30.2754H91.4138V40.3008H92.6129V30.2754Z" fill="#404040"/>
<path d="M101.095 36.8795C101.116 35.9356 100.773 35.0195 100.138 34.3194C99.8288 33.9715 99.4469 33.6957 99.019 33.5116C98.5911 33.3275 98.1278 33.2398 97.662 33.2545C96.5983 33.2545 95.7307 33.5982 95.0592 34.2856C94.7266 34.6267 94.4661 35.031 94.2933 35.4744C94.1206 35.9178 94.039 36.3912 94.0536 36.8667C94.0381 37.3452 94.1213 37.8219 94.2978 38.2671C94.4744 38.7124 94.7407 39.117 95.0802 39.4557C95.7657 40.1367 96.6547 40.4778 97.7474 40.4788C99.0969 40.4788 100.107 39.9611 100.777 38.9257L99.7588 38.3491C99.3462 39.0194 98.6843 39.3535 97.7732 39.3513C97.183 39.3719 96.6031 39.193 96.1278 38.8438C95.6739 38.4921 95.3709 37.9818 95.28 37.416H101.053C101.082 37.2386 101.096 37.0592 101.095 36.8795ZM95.28 36.372C95.3582 35.8116 95.637 35.2983 96.0649 34.9265C96.5122 34.5562 97.0809 34.3635 97.662 34.3852C98.1907 34.3756 98.7052 34.5551 99.1125 34.8911C99.5272 35.2306 99.7845 35.7253 99.8845 36.3752L95.28 36.372Z" fill="#404040"/>
<path d="M108.172 33.433V34.6135C107.575 33.7076 106.707 33.2547 105.567 33.2547C105.105 33.2484 104.647 33.3387 104.222 33.5199C103.797 33.7011 103.414 33.9692 103.1 34.3067C102.767 34.6438 102.505 35.044 102.33 35.4838C102.155 35.9236 102.07 36.3939 102.081 36.8669C102.07 37.3398 102.155 37.8101 102.33 38.2499C102.505 38.6897 102.767 39.0899 103.1 39.427C103.414 39.7645 103.797 40.0326 104.222 40.2138C104.647 40.395 105.105 40.4854 105.567 40.479C106.707 40.479 107.575 40.0256 108.172 39.1186V40.3007H109.371V33.433H108.172ZM107.469 38.6175C107.242 38.8492 106.969 39.0317 106.668 39.1536C106.367 39.2754 106.044 39.3341 105.719 39.3258C105.396 39.3331 105.075 39.2739 104.776 39.1521C104.477 39.0302 104.207 38.8482 103.981 38.6175C103.751 38.3884 103.571 38.115 103.45 37.8141C103.329 37.5131 103.271 37.1909 103.279 36.8669C103.271 36.5426 103.329 36.2202 103.45 35.919C103.571 35.6178 103.752 35.3442 103.981 35.1146C104.207 34.8844 104.477 34.7029 104.776 34.5813C105.075 34.4597 105.396 34.4007 105.719 34.4079C106.043 34.3997 106.366 34.4582 106.668 34.5798C106.969 34.7014 107.241 34.8834 107.469 35.1146C107.699 35.3439 107.88 35.6176 108.001 35.9188C108.122 36.22 108.18 36.5426 108.172 36.8669C108.179 37.1899 108.121 37.511 108 37.8108C107.879 38.1106 107.698 38.3829 107.469 38.6111V38.6175Z" fill="#404040"/>
<path d="M114.621 33.2549C113.619 33.2549 112.875 33.6441 112.389 34.4225V33.4332H111.19V40.3009H112.389V36.6598C112.389 35.8911 112.572 35.3214 112.939 34.9509C113.129 34.764 113.356 34.6182 113.606 34.5226C113.856 34.427 114.122 34.3836 114.389 34.3952C114.619 34.382 114.848 34.416 115.064 34.495C115.28 34.5741 115.477 34.6964 115.643 34.8546C115.948 35.1629 116.1 35.5955 116.099 36.1523V40.3009H117.298V36.0849C117.298 35.2143 117.054 34.5248 116.567 34.0162C116.079 33.5076 115.43 33.2538 114.621 33.2549Z" fill="#404040"/>
<path d="M120.162 33.4331H118.963V40.2993H120.162V33.4331Z" fill="#404040"/>
<path d="M119.569 30.5803C119.461 30.5779 119.354 30.598 119.254 30.6395C119.154 30.681 119.065 30.7429 118.991 30.8212C118.915 30.8957 118.855 30.9846 118.815 31.0825C118.774 31.1805 118.754 31.2855 118.755 31.3914C118.754 31.4964 118.774 31.6005 118.814 31.6974C118.855 31.7944 118.915 31.8821 118.991 31.9551C119.066 32.0311 119.156 32.0909 119.256 32.1309C119.355 32.171 119.462 32.1904 119.569 32.188C119.674 32.1893 119.778 32.1694 119.875 32.1294C119.972 32.0893 120.06 32.03 120.133 31.9551C120.209 31.8821 120.269 31.7944 120.309 31.6974C120.35 31.6005 120.37 31.4964 120.368 31.3914C120.369 31.2855 120.349 31.1805 120.309 31.0825C120.268 30.9846 120.209 30.8957 120.133 30.8212C120.061 30.744 119.974 30.6826 119.877 30.6411C119.78 30.5996 119.675 30.5789 119.569 30.5803Z" fill="#404040"/>
<path d="M125.431 33.2549C124.428 33.2549 123.684 33.6441 123.198 34.4225V33.4332H121.998V40.3009H123.198V36.6598C123.198 35.8911 123.382 35.3214 123.75 34.9509C123.94 34.7634 124.167 34.6172 124.416 34.5215C124.666 34.4259 124.933 34.3829 125.2 34.3952C125.43 34.3823 125.66 34.4164 125.876 34.4954C126.092 34.5744 126.289 34.6966 126.456 34.8546C126.759 35.1629 126.908 35.595 126.908 36.1523V40.3009H128.109V36.0849C128.109 35.2143 127.866 34.5248 127.379 34.0162C126.892 33.5076 126.243 33.2538 125.431 33.2549Z" fill="#404040"/>
<path d="M135.486 33.4328V34.6133C134.889 33.7074 134.026 33.2545 132.894 33.2545C132.429 33.2457 131.967 33.3334 131.538 33.512C131.109 33.6906 130.722 33.9563 130.401 34.2921C130.068 34.6238 129.806 35.0192 129.63 35.4544C129.455 35.8897 129.369 36.3559 129.379 36.8249C129.37 37.2953 129.456 37.7627 129.631 38.1994C129.807 38.6362 130.069 39.0333 130.401 39.3674C130.721 39.7041 131.108 39.9707 131.537 40.1502C131.967 40.3296 132.429 40.418 132.894 40.4097C133.409 40.4287 133.921 40.3115 134.376 40.07C134.831 39.8286 135.214 39.4715 135.486 39.0349V40.0114C135.486 40.6624 135.281 41.1753 134.872 41.5501C134.462 41.9249 133.899 42.1122 133.183 42.1122C132.063 42.1122 131.315 41.7278 130.938 40.959L129.892 41.5501C130.172 42.0863 130.614 42.5208 131.157 42.7916C131.779 43.0953 132.466 43.2441 133.158 43.2253C134.06 43.2467 134.939 42.9472 135.639 42.3805C136.326 41.8183 136.671 41.0286 136.672 40.0114V33.4264L135.486 33.4328ZM134.781 38.5724C134.553 38.8018 134.28 38.9822 133.98 39.1027C133.679 39.2231 133.357 39.2809 133.033 39.2726C132.709 39.2808 132.386 39.2229 132.085 39.1025C131.784 38.9821 131.511 38.8017 131.283 38.5724C131.052 38.345 130.871 38.0729 130.75 37.7729C130.629 37.4728 130.571 37.1513 130.58 36.8281C130.572 36.5072 130.63 36.1882 130.751 35.8906C130.872 35.5931 131.053 35.3234 131.283 35.0983C131.511 34.8687 131.784 34.6881 132.085 34.5677C132.386 34.4472 132.709 34.3895 133.033 34.3981C133.357 34.3894 133.679 34.447 133.98 34.5675C134.281 34.6879 134.554 34.8686 134.781 35.0983C135.012 35.3231 135.193 35.5927 135.314 35.8902C135.435 36.1878 135.494 36.5071 135.486 36.8281C135.494 37.1511 135.435 37.4724 135.313 37.7719C135.192 38.0714 135.01 38.3427 134.778 38.5691L134.781 38.5724Z" fill="#404040"/>
<path d="M146.414 38.9756C146.037 39.192 145.608 39.303 145.173 39.2968C144.852 39.3045 144.533 39.2462 144.235 39.1254C143.938 39.0047 143.668 38.8241 143.444 38.5949C143.216 38.3687 143.038 38.0986 142.918 37.8012C142.799 37.5039 142.741 37.1853 142.749 36.8651C142.74 36.5426 142.797 36.2217 142.917 35.9218C143.036 35.622 143.216 35.3495 143.444 35.1209C143.669 34.8922 143.938 34.7121 144.236 34.5916C144.533 34.4712 144.852 34.4129 145.173 34.4206C145.607 34.4108 146.034 34.5221 146.408 34.7418C146.758 34.9486 147.038 35.2544 147.214 35.6204L148.219 35.0438C147.955 34.4965 147.533 34.0401 147.007 33.7332C146.453 33.4064 145.818 33.2396 145.173 33.2514C144.693 33.238 144.216 33.3231 143.77 33.5013C143.325 33.6795 142.921 33.947 142.583 34.2873C142.246 34.6236 141.98 35.0248 141.802 35.4666C141.625 35.9083 141.539 36.3814 141.55 36.8571C141.539 37.3328 141.624 37.806 141.802 38.2477C141.98 38.6895 142.245 39.0907 142.583 39.4269C142.921 39.7677 143.324 40.0357 143.77 40.2142C144.216 40.3927 144.693 40.4779 145.173 40.4644C145.817 40.4737 146.452 40.307 147.007 39.9826C147.542 39.6755 147.98 39.2268 148.274 38.6865L147.256 38.0938C147.065 38.4616 146.773 38.7675 146.414 38.9756Z" fill="#404040"/>
<path d="M155.18 34.2986C154.843 33.9597 154.441 33.6924 153.998 33.513C153.555 33.3335 153.08 33.2456 152.601 33.2546C152.124 33.2451 151.65 33.3327 151.209 33.5123C150.767 33.6918 150.367 33.9594 150.032 34.2986C149.689 34.6316 149.417 35.0316 149.236 35.4738C149.054 35.916 148.966 36.3907 148.977 36.8684C148.967 37.3459 149.055 37.8205 149.237 38.2625C149.418 38.7046 149.689 39.1048 150.032 39.4382C150.367 39.7765 150.768 40.0435 151.209 40.2227C151.651 40.4019 152.125 40.4896 152.601 40.4805C153.079 40.4891 153.554 40.4011 153.998 40.222C154.441 40.0428 154.843 39.7762 155.18 39.4382C155.525 39.1056 155.797 38.7057 155.98 38.2635C156.162 37.8214 156.252 37.3465 156.242 36.8684C156.252 36.3902 156.163 35.915 155.981 35.4728C155.798 35.0306 155.525 34.6308 155.18 34.2986ZM154.337 38.611C154.111 38.8394 153.84 39.0192 153.542 39.1394C153.243 39.2595 152.923 39.3175 152.601 39.3097C152.282 39.3163 151.964 39.2578 151.668 39.1377C151.372 39.0175 151.104 38.8383 150.88 38.611C150.649 38.3836 150.468 38.1115 150.347 37.8115C150.226 37.5115 150.168 37.19 150.176 36.8668C150.167 36.5435 150.225 36.2218 150.346 35.9218C150.467 35.6218 150.649 35.3497 150.88 35.1225C151.104 34.895 151.372 34.7154 151.668 34.595C151.964 34.4746 152.282 34.4158 152.601 34.4223C152.923 34.4148 153.243 34.473 153.542 34.5934C153.84 34.7139 154.111 34.8939 154.337 35.1225C154.568 35.3496 154.75 35.6216 154.871 35.9217C154.992 36.2217 155.05 36.5434 155.041 36.8668C155.05 37.1901 154.992 37.5117 154.871 37.8117C154.75 38.1117 154.568 38.3838 154.337 38.611Z" fill="#404040"/>
<path d="M165.101 33.2545C164.134 33.2545 163.413 33.6437 162.937 34.4221C162.514 33.6448 161.839 33.2556 160.911 33.2545C160.501 33.2376 160.095 33.3306 159.733 33.5238C159.372 33.7171 159.07 34.0035 158.858 34.3531V33.4328H157.663V40.3005H158.861V36.4812C158.861 35.7863 159.029 35.2648 159.365 34.9168C159.527 34.7463 159.722 34.6117 159.939 34.5218C160.157 34.4318 160.39 34.3886 160.626 34.3948C160.825 34.3851 161.025 34.4195 161.209 34.4956C161.394 34.5717 161.56 34.6876 161.694 34.8349C161.957 35.1272 162.086 35.5384 162.086 36.07V40.3005H163.285V36.4812C163.285 35.7777 163.446 35.2525 163.747 34.9104C163.902 34.7394 164.093 34.6045 164.306 34.5154C164.519 34.4263 164.749 34.3851 164.98 34.3948C165.185 34.3863 165.389 34.4211 165.579 34.497C165.77 34.5728 165.942 34.688 166.084 34.8349C166.36 35.1272 166.495 35.5384 166.495 36.07V40.3005H167.696V36.0283C167.696 35.1717 167.457 34.4966 166.979 34.003C166.736 33.7534 166.444 33.5576 166.12 33.4287C165.797 33.2997 165.449 33.2403 165.101 33.2545Z" fill="#404040"/>
<path d="M175.63 34.3067C175.315 33.9692 174.933 33.7011 174.508 33.5199C174.083 33.3387 173.625 33.2484 173.163 33.2547C172.025 33.2547 171.154 33.7076 170.56 34.6135V33.433H169.359V43.0472H170.557V39.1186C171.151 40.0245 172.022 40.479 173.159 40.479C173.622 40.4854 174.08 40.395 174.505 40.2138C174.93 40.0326 175.312 39.7645 175.627 39.427C175.96 39.0901 176.222 38.6899 176.398 38.2501C176.573 37.8103 176.658 37.3399 176.647 36.8669C176.658 36.394 176.574 35.9238 176.399 35.484C176.224 35.0442 175.963 34.6439 175.63 34.3067ZM174.747 38.6111C174.522 38.8418 174.252 39.0237 173.953 39.1456C173.654 39.2675 173.334 39.3266 173.011 39.3194C172.686 39.328 172.363 39.2694 172.062 39.1476C171.76 39.0257 171.488 38.843 171.261 38.6111C171.031 38.3821 170.85 38.1088 170.729 37.8078C170.608 37.5069 170.55 37.1845 170.558 36.8604C170.55 36.5361 170.608 36.2136 170.729 35.9124C170.85 35.6111 171.031 35.3375 171.261 35.1082C171.488 34.8767 171.761 34.6946 172.062 34.573C172.363 34.4514 172.686 34.393 173.011 34.4015C173.334 34.3943 173.654 34.4534 173.953 34.5749C174.251 34.6965 174.522 34.878 174.747 35.1082C174.977 35.3377 175.158 35.6114 175.278 35.9126C175.399 36.2137 175.457 36.5362 175.45 36.8604C175.457 37.1844 175.399 37.5067 175.278 37.8077C175.158 38.1086 174.977 38.3819 174.747 38.6111Z" fill="#404040"/>
<path d="M183.79 33.433V34.6135C183.191 33.7076 182.323 33.2547 181.184 33.2547C180.722 33.2482 180.263 33.3385 179.839 33.5197C179.414 33.7009 179.032 33.9691 178.718 34.3067C178.384 34.6436 178.122 35.0439 177.947 35.4836C177.772 35.9234 177.687 36.3938 177.698 36.8669C177.687 37.3399 177.772 37.8103 177.947 38.2501C178.122 38.6899 178.384 39.0901 178.718 39.427C179.032 39.7647 179.414 40.0328 179.839 40.214C180.263 40.3953 180.722 40.4855 181.184 40.479C182.325 40.479 183.193 40.0256 183.79 39.1187V40.3008H184.987V33.433H183.79ZM183.087 38.6175C182.859 38.8491 182.586 39.0315 182.285 39.1534C181.984 39.2752 181.66 39.3339 181.335 39.3258C181.013 39.3332 180.692 39.2741 180.394 39.1523C180.095 39.0304 179.825 38.8483 179.601 38.6175C179.37 38.3889 179.189 38.1157 179.068 37.8146C178.946 37.5136 178.888 37.1911 178.897 36.8669C178.888 36.5424 178.947 36.2197 179.068 35.9185C179.189 35.6172 179.37 35.3437 179.601 35.1146C179.826 34.8843 180.096 34.7028 180.394 34.5812C180.693 34.4596 181.013 34.4006 181.335 34.4079C181.66 34.3999 181.983 34.4585 182.285 34.58C182.586 34.7016 182.859 34.8835 183.087 35.1146C183.317 35.3442 183.498 35.6178 183.618 35.919C183.739 36.2202 183.797 36.5426 183.79 36.8669C183.797 37.1898 183.738 37.5109 183.617 37.8106C183.497 38.1104 183.316 38.3827 183.087 38.6111V38.6175Z" fill="#404040"/>
<path d="M190.238 33.2549C189.237 33.2549 188.493 33.6441 188.006 34.4225V33.4332H186.808V40.3009H188.006V36.6598C188.006 35.891 188.19 35.3214 188.557 34.9509C188.747 34.7634 188.974 34.6172 189.224 34.5215C189.473 34.4259 189.74 34.3829 190.007 34.3952C190.237 34.3821 190.467 34.4161 190.682 34.4952C190.898 34.5742 191.095 34.6965 191.261 34.8546C191.564 35.1629 191.717 35.595 191.717 36.1523V40.3009H192.915V36.0849C192.915 35.2143 192.671 34.5248 192.185 34.0162C191.693 33.5086 191.047 33.2549 190.238 33.2549Z" fill="#404040"/>
<path d="M199.244 33.4331L197.258 38.8168L194.915 33.4331H193.625L196.63 40.2719L196.504 40.5386C196.11 41.5365 195.489 42.0033 194.642 41.9391V43.0521C195.299 43.1084 195.952 42.9144 196.47 42.5093C197.039 42.0423 197.466 41.4266 197.703 40.7313L200.515 33.4379L199.244 33.4331Z" fill="#404040"/>
<path d="M73.8421 9.70107V6.81006H63.8274V23.9505H73.8421V21.0595H66.8073V16.4178H72.8913V13.5268H66.8041V9.70107H73.8421Z" fill="#8EB0EC"/>
<path d="M83.4604 11.7891V18.1959C83.4604 19.2318 83.2703 20.0076 82.8964 20.5006C82.5225 20.9937 81.9036 21.2603 81.0833 21.2603C80.2629 21.2603 79.6505 21.005 79.2685 20.5006C78.8866 19.9963 78.7061 19.2318 78.7061 18.1959V11.7891H75.7278V18.1959C75.7278 20.173 76.2113 21.6763 77.1863 22.6657C78.1614 23.655 79.4652 24.1562 81.0833 24.1562C82.7013 24.1562 84.0116 23.6534 84.9802 22.6657C85.9488 21.6779 86.4307 20.173 86.4307 18.1959V11.7891H83.4604Z" fill="#8EB0EC"/>
<path d="M93.6555 11.7329C92.1035 11.7329 90.8335 12.2147 89.8843 13.1864C88.935 14.1581 88.45 15.6165 88.45 17.5422V23.9506H91.425V17.5422C91.425 15.6149 92.1809 14.6303 93.6701 14.6271V11.7361L93.6555 11.7329Z" fill="#8EB0EC"/>
<path d="M105.824 13.4221C105.245 12.8298 104.551 12.3613 103.784 12.0451C103.017 11.7289 102.194 11.5717 101.364 11.5831C100.534 11.5715 99.7111 11.7286 98.9443 12.0448C98.1776 12.361 97.4836 12.8297 96.9047 13.4221C96.3138 14.0009 95.8443 14.691 95.5235 15.4523C95.2118 16.2172 95.0546 17.0359 95.061 17.8614C95.0484 18.689 95.2054 19.5104 95.5225 20.2754C95.8395 21.0404 96.3098 21.7328 96.9047 22.3104C97.4828 22.9043 98.1765 23.3743 98.9433 23.6917C99.7101 24.009 100.534 24.1669 101.364 24.1558C102.194 24.1678 103.017 24.0108 103.784 23.6946C104.551 23.3784 105.245 22.9096 105.824 22.3168C106.418 21.74 106.889 21.0484 107.206 20.2843C107.523 19.5201 107.681 18.6996 107.669 17.8727C107.682 17.0447 107.525 16.2228 107.207 15.4575C106.89 14.6922 106.419 13.9995 105.824 13.4221ZM103.754 20.2818C103.449 20.5979 103.081 20.8468 102.673 21.0128C102.266 21.1787 101.828 21.258 101.388 21.2455C100.945 21.2565 100.505 21.1766 100.094 21.0108C99.6828 20.845 99.3105 20.5969 98.9998 20.2818C98.6848 19.9654 98.4369 19.589 98.2708 19.1752C98.1046 18.7613 98.0237 18.3183 98.0329 17.8727C98.0227 17.4257 98.103 16.9812 98.2692 16.5659C98.4353 16.1505 98.6838 15.7729 98.9998 15.4555C99.3103 15.1402 99.6826 14.8919 100.094 14.7261C100.504 14.5603 100.945 14.4806 101.388 14.4918C101.829 14.4803 102.267 14.561 102.675 14.7287C103.082 14.8963 103.45 15.1472 103.754 15.4651C104.061 15.7858 104.302 16.1636 104.462 16.577C104.623 16.9904 104.7 17.4312 104.689 17.8743C104.699 18.3171 104.622 18.7576 104.462 19.1707C104.301 19.5838 104.061 19.9614 103.754 20.2818Z" fill="#8EB0EC"/>
<path d="M120.291 13.4222C119.712 12.83 119.019 12.3614 118.252 12.0452C117.486 11.7291 116.663 11.5719 115.833 11.5832C115.005 11.5707 114.183 11.7273 113.418 12.0433C112.653 12.3593 111.961 12.828 111.385 13.4206C110.794 13.9995 110.326 14.692 110.011 15.4562C109.696 16.2203 109.54 17.0403 109.553 17.8664V28.9212H112.557V23.0798L112.766 23.2276C113.663 23.8513 114.735 24.1743 115.828 24.1495C116.658 24.1614 117.481 24.0045 118.248 23.6882C119.014 23.372 119.708 22.9032 120.286 22.3105C120.881 21.7337 121.351 21.0421 121.669 20.278C121.986 19.5138 122.143 18.6932 122.132 17.8664C122.144 17.0398 121.987 16.2193 121.671 15.4552C121.355 14.6911 120.885 13.9993 120.291 13.4222ZM118.222 20.2819C117.917 20.598 117.549 20.847 117.142 21.013C116.735 21.1789 116.297 21.2582 115.857 21.2456C115.414 21.2567 114.973 21.1769 114.562 21.0111C114.151 20.8453 113.778 20.5971 113.467 20.2819C113.152 19.9656 112.904 19.5893 112.738 19.1754C112.572 18.7615 112.491 18.3185 112.5 17.8728C112.49 17.4258 112.571 16.9813 112.737 16.566C112.903 16.1506 113.151 15.773 113.467 15.4556C113.778 15.1401 114.151 14.8918 114.562 14.726C114.973 14.5602 115.414 14.4805 115.857 14.4919C116.298 14.4803 116.736 14.5609 117.143 14.7285C117.55 14.8962 117.918 15.1472 118.222 15.4652C118.529 15.7859 118.769 16.1637 118.93 16.5771C119.09 16.9905 119.167 17.4313 119.156 17.8744C119.167 18.3172 119.09 18.7577 118.929 19.1708C118.769 19.5839 118.529 19.9615 118.222 20.2819Z" fill="#8EB0EC"/>
<path d="M136.48 17.5967C136.416 15.7721 135.737 14.2977 134.467 13.2168C133.262 12.1589 131.71 11.5777 130.105 11.5834C129.28 11.5695 128.462 11.728 127.703 12.0486C126.943 12.3692 126.26 12.8449 125.697 13.4449C125.117 14.0308 124.659 14.7256 124.35 15.4889C124.041 16.2523 123.887 17.0691 123.896 17.8922C123.884 18.7165 124.04 19.5348 124.355 20.297C124.67 21.0592 125.138 21.7493 125.731 22.3251C126.311 22.9174 127.008 23.3853 127.776 23.7001C128.545 24.015 129.37 24.1701 130.201 24.156C131.437 24.1637 132.646 23.7986 133.669 23.1089C134.631 22.473 135.403 21.5916 135.906 20.5567L132.292 20.5326C131.666 21.0164 130.893 21.271 130.101 21.2538C129.414 21.2738 128.738 21.0789 128.167 20.6965C127.642 20.3326 127.272 19.7861 127.129 19.1642L127.089 19.0036H136.4C136.468 18.5379 136.495 18.0671 136.48 17.5967ZM127.059 16.6812L127.136 16.4981C127.705 15.157 128.736 14.4776 130.198 14.4776C130.851 14.4773 131.489 14.6713 132.03 15.0349C132.577 15.3899 133.006 15.8985 133.263 16.4965L133.342 16.6812H127.059Z" fill="#8EB0EC"/>
<path d="M148.991 13.4206C148.415 12.8281 147.723 12.3594 146.959 12.0434C146.194 11.7274 145.372 11.5708 144.545 11.5832C143.715 11.5716 142.892 11.7287 142.125 12.0449C141.358 12.3611 140.664 12.8297 140.085 13.4222C139.491 13.9992 139.021 14.6909 138.704 15.455C138.387 16.2191 138.23 17.0396 138.242 17.8663C138.23 18.6931 138.387 19.5136 138.704 20.2777C139.021 21.0418 139.491 21.7335 140.085 22.3105C140.663 22.9044 141.357 23.3744 142.124 23.6917C142.891 24.0091 143.714 24.167 144.545 24.1559C145.207 24.1586 145.862 24.0097 146.458 23.7206C147.041 23.4379 147.425 23.1007 147.586 22.7168L147.841 22.145V23.9567H150.819V17.8663C150.832 17.0406 150.677 16.2209 150.362 15.4567C150.048 14.6925 149.582 13.9999 148.991 13.4206ZM146.935 20.2819C146.63 20.598 146.261 20.8469 145.854 21.0129C145.447 21.1788 145.009 21.2581 144.569 21.2456C144.126 21.2565 143.685 21.1767 143.274 21.0109C142.863 20.8451 142.491 20.597 142.18 20.2819C141.865 19.9657 141.617 19.5894 141.451 19.1754C141.285 18.7615 141.204 18.3185 141.213 17.8728C141.203 17.4257 141.283 16.9811 141.449 16.5658C141.615 16.1504 141.864 15.7727 142.18 15.4556C142.491 15.1402 142.863 14.892 143.274 14.7262C143.685 14.5604 144.126 14.4807 144.569 14.4919C145.01 14.4804 145.448 14.5611 145.855 14.7288C146.263 14.8964 146.631 15.1473 146.935 15.4652C147.242 15.7859 147.482 16.1637 147.643 16.5771C147.803 16.9905 147.88 17.4313 147.87 17.8744C147.88 18.3172 147.803 18.7577 147.642 19.1708C147.482 19.5839 147.242 19.9615 146.935 20.2819Z" fill="#8EB0EC"/>
<path d="M162.086 13.0738C161.119 12.0861 159.809 11.585 158.189 11.585C156.569 11.585 155.259 12.0861 154.294 13.0738C153.328 14.0616 152.829 15.5665 152.829 17.542V23.9504H155.809V17.542C155.809 16.5077 155.997 15.732 156.371 15.2389C156.745 14.7458 157.364 14.4776 158.184 14.4776C159.004 14.4776 159.615 14.7346 159.999 15.2389C160.382 15.7432 160.561 16.5077 160.561 17.542V23.9504H163.541V17.542C163.546 15.5665 163.054 14.0616 162.086 13.0738Z" fill="#8EB0EC"/>
<path d="M177.253 16.3807C176.89 15.7597 176.344 15.265 175.69 14.9641C175.013 14.6746 174.318 14.4278 173.611 14.2253C172.868 14.0101 172.16 13.8415 171.527 13.7194C170.917 13.6161 170.342 13.3682 169.849 12.9966C169.624 12.8266 169.444 12.6055 169.322 12.3519C169.2 12.0982 169.141 11.8193 169.15 11.5383C169.15 10.2968 169.999 9.66557 171.677 9.66557C172.505 9.66557 173.138 9.85669 173.561 10.2341C173.983 10.6116 174.181 11.1817 174.205 11.9784H177.184C177.159 10.3723 176.661 9.10503 175.704 8.18954C174.721 7.24836 173.366 6.77295 171.675 6.77295C169.952 6.77295 168.587 7.17608 167.617 7.97271C166.647 8.76935 166.166 9.92897 166.166 11.4387C166.147 12.1752 166.309 12.9051 166.637 13.5652C166.912 14.1141 167.326 14.5815 167.839 14.9208C168.362 15.2497 168.922 15.516 169.507 15.7142C170.125 15.9278 170.75 16.1141 171.367 16.2715C171.984 16.4289 172.568 16.6024 173.077 16.7839C173.567 16.952 174.011 17.2313 174.374 17.5998C174.72 17.9619 174.908 18.4459 174.897 18.9457C174.897 20.5839 173.88 21.4143 171.872 21.4143C170.895 21.4143 170.099 21.1589 169.502 20.6498C168.93 20.168 168.627 19.4918 168.598 18.655H165.618C165.619 19.4078 165.777 20.1522 166.082 20.8408C166.387 21.5294 166.833 22.147 167.391 22.6542C168.574 23.7512 170.038 24.3101 171.743 24.3101C173.482 24.3101 174.956 23.817 176.123 22.847C177.29 21.8769 177.87 20.5711 177.87 18.9457C177.88 17.9162 177.669 17.0537 177.253 16.3807Z" fill="#404040"/>
<path d="M186.325 14.8403V11.9493H184.082V7.00244H181.102V11.9493H179.26V14.8403H181.105V18.3737C181.105 20.3332 181.588 21.8076 182.555 22.7536C183.488 23.6755 184.758 24.1558 186.333 24.1815V21.2904C185.564 21.2664 184.995 21.0335 184.642 20.5966C184.289 20.1597 184.09 19.3968 184.09 18.377V14.8403H186.325Z" fill="#404040"/>
<path d="M196.494 11.9497V18.3565C196.494 19.3925 196.306 20.1682 195.932 20.6613C195.558 21.1544 194.939 21.421 194.117 21.421C193.295 21.421 192.684 21.1656 192.302 20.6613C191.92 20.157 191.74 19.3925 191.74 18.3565V11.9497H188.768V18.3565C188.768 20.3336 189.252 21.837 190.219 22.8263C191.186 23.8157 192.497 24.3168 194.115 24.3168C194.86 24.3167 195.597 24.1676 196.283 23.8783L196.467 23.8012V24.0743C196.467 25.4812 195.677 26.1944 194.115 26.1944C193.758 26.1967 193.404 26.1173 193.082 25.9622C192.76 25.8071 192.478 25.5805 192.257 25.2997H188.892C189.288 26.3663 189.969 27.3041 190.863 28.0109C191.793 28.7244 192.939 29.1006 194.112 29.0773C195.664 29.0773 196.958 28.5569 197.959 27.5258C198.96 26.4947 199.468 25.1793 199.468 23.6149V11.9497H196.494Z" fill="#404040"/>
<path d="M202.129 6.9707V24.1112H205.109V6.9707H202.129Z" fill="#404040"/>
<path d="M219.712 17.7573C219.646 15.9328 218.969 14.4584 217.699 13.3775C216.493 12.319 214.94 11.7379 213.333 11.744C212.508 11.7299 211.69 11.8883 210.931 12.209C210.172 12.5296 209.488 13.0054 208.925 13.6055C208.345 14.1915 207.887 14.8862 207.578 15.6496C207.269 16.413 207.115 17.2298 207.125 18.0529C207.112 18.8771 207.268 19.6952 207.583 20.4574C207.898 21.2195 208.366 21.9097 208.957 22.4857C209.538 23.0776 210.234 23.5453 211.002 23.8601C211.771 24.1749 212.596 24.3303 213.426 24.3167C214.662 24.325 215.871 23.9599 216.895 23.2695C217.855 22.6354 218.627 21.7564 219.131 20.7238L215.518 20.6997C214.893 21.1835 214.119 21.4381 213.328 21.4209C212.641 21.4406 211.965 21.2457 211.394 20.8636C210.869 20.4996 210.499 19.9531 210.358 19.3313L210.317 19.1707H219.628C219.698 18.703 219.726 18.23 219.712 17.7573ZM210.29 16.8418L210.367 16.6588C210.936 15.3176 211.968 14.6383 213.429 14.6383C214.082 14.6376 214.721 14.8317 215.262 15.1956C215.81 15.55 216.239 16.0588 216.496 16.6571L216.574 16.8418H210.29Z" fill="#404040"/>
</g>
<defs>
<clipPath id="clip0_1_69">
<rect width="219.712" height="50" fill="white"/>
</clipPath>
</defs>
</svg>
