<svg width="171" height="109" viewBox="0 0 171 109" fill="none" xmlns="http://www.w3.org/2000/svg">
<path d="M47.587 8.87667C45.0243 6.08393 41.9059 3.85391 38.4305 2.32878C34.9551 0.803652 31.199 0.0168588 27.4016 0.0185574H0V27.3262C0 42.3845 12.2915 54.6356 27.4016 54.6356C31.1991 54.637 34.9553 53.8499 38.4307 52.3245C41.906 50.799 45.0244 48.5688 47.587 45.7758C52.2341 40.7485 54.8111 34.1615 54.8049 27.3262C54.8111 20.4909 52.2341 13.9039 47.587 8.87667ZM42.5063 42.3704C40.5259 44.3505 38.1726 45.9213 35.5814 46.9925C32.9902 48.0637 30.2122 48.6143 27.4069 48.6127C21.743 48.6071 16.3126 46.3629 12.307 42.3723C8.30135 38.3817 6.04761 32.9707 6.04015 27.3262V6.03625H27.4033C31.842 6.04161 36.1692 7.42241 39.7855 9.98741C43.4017 12.5524 46.1281 16.1746 47.587 20.3524C48.3693 22.5947 48.7674 24.9522 48.7647 27.3262C48.7676 29.7002 48.3694 32.0578 47.587 34.3001C46.5254 37.3374 44.7885 40.0963 42.5063 42.3704Z" fill="#8EB0EC"/>
<path d="M26.4619 25.1457H22.8847C22.8842 24.2948 22.5448 23.4789 21.9411 22.8772C21.3373 22.2756 20.5186 21.9373 19.6648 21.9369C18.8111 21.9378 17.9927 22.2762 17.389 22.8777C16.7854 23.4793 16.4459 24.295 16.4449 25.1457H12.8677C12.8695 23.3496 13.5862 21.6275 14.8605 20.3573C16.1347 19.0871 17.8625 18.3724 19.6648 18.3701C21.4671 18.3724 23.1949 19.0871 24.4692 20.3573C25.7434 21.6275 26.4601 23.3496 26.4619 25.1457Z" fill="white"/>
<path d="M27.9603 40.1383C25.2856 40.1355 22.7213 39.0755 20.8299 37.1909C18.9384 35.3063 17.8744 32.7509 17.8711 30.0854V29.4941H21.4484V30.0889C21.4484 31.8105 22.1346 33.4616 23.3562 34.679C24.5777 35.8964 26.2345 36.5803 27.9621 36.5803C29.6896 36.5803 31.3464 35.8964 32.5679 34.679C33.7895 33.4616 34.4758 31.8105 34.4758 30.0889V29.4977H38.0548V30.0889C38.0506 32.7547 36.9854 35.3099 35.0929 37.194C33.2004 39.078 30.6353 40.1369 27.9603 40.1383Z" fill="white"/>
<path d="M36.2607 17.3398L37.4649 20.5575L40.6936 21.7575L37.4649 22.9575L36.2607 26.1751L35.0548 22.9575L31.8279 21.7575L35.0548 20.5575L36.2607 17.3398Z" fill="white"/>
<path d="M26.462 25.1449H22.883C22.8826 24.294 22.5432 23.4781 21.9394 22.8765C21.3357 22.2748 20.517 21.9366 19.6632 21.9361C18.8093 21.9366 17.9906 22.2748 17.3869 22.8765C16.7831 23.4781 16.4437 24.294 16.4433 25.1449H12.8643C12.8666 23.3488 13.5837 21.6269 14.8583 20.357C16.1329 19.0872 17.8609 18.373 19.6632 18.3711C21.4655 18.373 23.1934 19.0872 24.468 20.357C25.7426 21.6269 26.4597 23.3488 26.462 25.1449Z" fill="#8EB0EC"/>
<path d="M38.0493 29.4941V30.0889C38.0465 32.7549 36.9827 35.3108 35.0913 37.1961C33.1998 39.0814 30.6352 40.142 27.9601 40.1453C25.2847 40.1425 22.7196 39.0821 20.8278 37.1967C18.936 35.3114 17.8719 32.7552 17.8691 30.0889V29.4994H21.4499V30.0889C21.4499 31.8105 22.1362 33.4616 23.3577 34.679C24.5793 35.8964 26.2361 36.5803 27.9636 36.5803C29.6912 36.5803 31.348 35.8964 32.5695 34.679C33.7911 33.4616 34.4773 31.8105 34.4773 30.0889V29.4994L38.0493 29.4941Z" fill="#8EB0EC"/>
<path d="M40.6936 21.7577L37.4649 22.9577L36.2607 26.1753L35.0566 22.9577L31.8279 21.7577L35.0566 20.5577L36.2607 17.3418L37.4649 20.5577L40.6936 21.7577Z" fill="#8EB0EC"/>
<path d="M5.32542 103.692C4.91437 103.928 4.44689 104.05 3.97217 104.045C3.62131 104.054 3.27229 103.991 2.94703 103.859C2.62178 103.728 2.32728 103.531 2.08202 103.281C1.83229 103.034 1.63564 102.74 1.50407 102.415C1.37251 102.09 1.30882 101.742 1.3169 101.392C1.30683 101.04 1.36898 100.689 1.49955 100.361C1.63011 100.033 1.82635 99.7355 2.07628 99.4859C2.32112 99.2355 2.61512 99.0381 2.93993 98.906C3.26474 98.7739 3.6134 98.7099 3.96412 98.7181C4.43703 98.7072 4.9036 98.828 5.31138 99.0669C5.69455 99.2917 6.00158 99.6254 6.19306 100.025L7.29063 99.3938C7.00122 98.7963 6.53953 98.2986 5.96462 97.9641C5.35855 97.6085 4.66538 97.4274 3.96218 97.4408C3.43794 97.4268 2.91641 97.5205 2.43002 97.7159C1.94362 97.9113 1.50275 98.2043 1.13483 98.5767C0.76524 98.944 0.474636 99.3825 0.280744 99.8654C0.0868519 100.348 -0.00624851 100.866 0.00711183 101.386C-0.00488183 101.906 0.0896773 102.423 0.285041 102.905C0.480406 103.387 0.772456 103.825 1.14332 104.191C1.51203 104.563 1.95367 104.855 2.4407 105.049C2.92774 105.243 3.44974 105.336 3.9741 105.32C4.67706 105.329 5.36907 105.146 5.97495 104.791C6.55817 104.454 7.03685 103.963 7.35829 103.373L6.24292 102.727C6.03614 103.129 5.71768 103.464 5.32542 103.692Z" fill="white"/>
<path d="M9.95334 94.1806L8.64355 94.1826L8.66012 105.134L9.9699 105.132L9.95334 94.1806Z" fill="white"/>
<path d="M19.2297 101.38C19.251 100.349 18.8753 99.3492 18.1797 98.5855C17.842 98.206 17.4243 97.9054 16.9566 97.705C16.489 97.5047 15.9827 97.4096 15.4739 97.4264C14.312 97.4282 13.3649 97.8051 12.6325 98.5571C12.2697 98.9302 11.9858 99.3722 11.7978 99.8568C11.6098 100.341 11.5216 100.859 11.5382 101.378C11.5222 101.901 11.6138 102.421 11.8074 102.907C12.001 103.394 12.2925 103.835 12.6639 104.205C13.4138 104.947 14.3856 105.318 15.5792 105.318C17.0532 105.315 18.1556 104.748 18.8863 103.616L17.7727 102.988C17.3231 103.721 16.6007 104.087 15.6055 104.086C14.9608 104.109 14.3271 103.915 13.8072 103.534C13.3108 103.151 12.979 102.594 12.8788 101.976L19.1848 101.967C19.216 101.773 19.231 101.577 19.2297 101.38ZM12.8771 100.836C12.9616 100.223 13.2652 99.6623 13.7321 99.2554C14.2201 98.8502 14.841 98.6388 15.4758 98.6615C16.0532 98.6502 16.6156 98.8454 17.061 99.2118C17.5146 99.5819 17.7965 100.122 17.9067 100.832L12.8771 100.836Z" fill="white"/>
<path d="M26.9541 97.604L26.9561 98.8935C26.3032 97.9049 25.3542 97.4116 24.1089 97.4135C23.604 97.4074 23.1034 97.5068 22.6395 97.7054C22.1755 97.9041 21.7585 98.1975 21.4154 98.5667C21.0521 98.9355 20.7668 99.3732 20.5764 99.8538C20.386 100.334 20.2944 100.848 20.307 101.365C20.296 101.882 20.3891 102.395 20.581 102.875C20.7728 103.355 21.0594 103.792 21.4239 104.16C21.7681 104.528 22.186 104.82 22.6505 105.017C23.1151 105.215 23.616 105.313 24.1209 105.305C25.3661 105.303 26.3137 104.806 26.9635 103.815L26.9655 105.106L28.2753 105.104L28.2639 97.602L26.9541 97.604ZM26.1951 103.268C25.9474 103.522 25.6498 103.722 25.3211 103.855C24.9923 103.989 24.6394 104.053 24.2844 104.045C23.9317 104.053 23.5811 103.989 23.2544 103.857C22.9276 103.724 22.6319 103.526 22.3855 103.274C22.1339 103.024 21.9359 102.726 21.8034 102.397C21.671 102.069 21.6069 101.717 21.6151 101.363C21.606 101.009 21.6691 100.657 21.8005 100.327C21.932 99.9981 22.129 99.6989 22.3797 99.4478C22.6257 99.1959 22.921 98.9972 23.2472 98.8639C23.5735 98.7306 23.9238 98.6656 24.2763 98.6729C24.6311 98.6635 24.984 98.7268 25.3131 98.8591C25.6422 98.9915 25.9405 99.1899 26.1894 99.442C26.4412 99.6922 26.6393 99.9907 26.7717 100.32C26.9042 100.648 26.9682 101.001 26.9598 101.355C26.9685 101.708 26.9052 102.059 26.7737 102.386C26.6423 102.714 26.4454 103.012 26.1951 103.261L26.1951 103.268Z" fill="white"/>
<path d="M33.9992 97.3986C32.9042 97.4003 32.0921 97.8267 31.5629 98.6778L31.5613 97.5971L30.2515 97.599L30.2629 105.101L31.5726 105.099L31.5666 101.122C31.5653 100.282 31.7645 99.6594 32.1641 99.2541C32.3719 99.0496 32.6198 98.8899 32.8922 98.7851C33.1646 98.6802 33.4558 98.6324 33.7476 98.6447C33.9982 98.6299 34.2492 98.6666 34.4849 98.7526C34.7207 98.8385 34.9362 98.9719 35.118 99.1443C35.4518 99.4807 35.6186 99.953 35.6184 100.561L35.6252 105.093L36.935 105.091L36.928 100.486C36.9266 99.5346 36.659 98.7818 36.1254 98.227C35.5917 97.6722 34.883 97.3961 33.9992 97.3986Z" fill="white"/>
<path d="M40.0517 97.584L38.7419 97.5859L38.7533 105.086L40.0631 105.084L40.0517 97.584Z" fill="white"/>
<path d="M39.3994 94.4696C39.2814 94.4671 39.1642 94.4893 39.0554 94.5348C38.9466 94.5803 38.8486 94.6481 38.7678 94.7337C38.6854 94.8152 38.6203 94.9124 38.5764 95.0194C38.5324 95.1265 38.5104 95.2412 38.5117 95.3569C38.5103 95.4716 38.5326 95.5853 38.5769 95.6911C38.6213 95.797 38.6869 95.8927 38.7696 95.9723C38.8522 96.0552 38.9509 96.1204 39.0596 96.1639C39.1684 96.2075 39.2849 96.2285 39.402 96.2258C39.5167 96.2271 39.6304 96.2051 39.7362 96.1612C39.8421 96.1173 39.9379 96.0524 40.0178 95.9704C40.1003 95.8905 40.1656 95.7946 40.2097 95.6887C40.2537 95.5827 40.2756 95.4689 40.2739 95.3542C40.2748 95.2386 40.2525 95.1239 40.2082 95.017C40.1639 94.9101 40.0985 94.8131 40.0159 94.7318C39.9373 94.6476 39.8417 94.5807 39.7355 94.5355C39.6293 94.4903 39.5148 94.4679 39.3994 94.4696Z" fill="white"/>
<path d="M45.8064 97.381C44.7114 97.3827 43.8993 97.8091 43.3701 98.6602L43.3685 97.5795L42.0569 97.5815L42.0683 105.083L43.3798 105.081L43.3738 101.104C43.3726 100.264 43.5723 99.6418 43.9731 99.2365C44.1804 99.0313 44.4281 98.8712 44.7007 98.7663C44.9732 98.6614 45.2647 98.614 45.5566 98.6271C45.8074 98.6126 46.0586 98.6494 46.2946 98.7353C46.5305 98.8213 46.7464 98.9545 46.9287 99.1268C47.2602 99.4631 47.4246 99.9348 47.4256 100.544L47.4324 105.075L48.7439 105.073L48.737 100.468C48.7355 99.517 48.4686 98.7642 47.9361 98.2094C47.4036 97.6547 46.6937 97.3785 45.8064 97.381Z" fill="white"/>
<path d="M56.7904 97.5593L56.7924 98.8488C56.1395 97.8603 55.1951 97.367 53.9593 97.3689C53.4513 97.36 52.947 97.4566 52.4784 97.6524C52.0099 97.8482 51.5873 98.139 51.2376 98.5063C50.8745 98.8692 50.5888 99.3016 50.3978 99.7773C50.2067 100.253 50.1141 100.762 50.1256 101.275C50.1164 101.789 50.2109 102.299 50.4033 102.776C50.5957 103.253 50.8823 103.686 51.246 104.05C51.5963 104.418 52.0195 104.708 52.4887 104.904C52.9579 105.099 53.4627 105.195 53.9711 105.185C54.534 105.205 55.0921 105.076 55.5888 104.811C56.0856 104.547 56.5033 104.156 56.7997 103.679L56.8013 104.745C56.8024 105.457 56.5796 106.017 56.1331 106.427C55.6865 106.837 55.0719 107.043 54.289 107.044C53.0661 107.046 52.2481 106.627 51.8348 105.788L50.6933 106.435C51.0001 107.021 51.4844 107.495 52.0773 107.79C52.7575 108.12 53.508 108.282 54.2645 108.26C55.249 108.282 56.2092 107.953 56.9724 107.333C57.7226 106.718 58.0975 105.855 58.097 104.743L58.0861 97.5503L56.7904 97.5593ZM56.0296 103.175C55.7808 103.426 55.4831 103.623 55.1548 103.755C54.8265 103.887 54.4746 103.951 54.1206 103.942C53.7665 103.952 53.4142 103.889 53.0852 103.758C52.7563 103.627 52.4576 103.431 52.2076 103.18C51.9553 102.932 51.7567 102.636 51.6242 102.308C51.4917 101.98 51.428 101.629 51.4372 101.276C51.4281 100.926 51.4913 100.577 51.6228 100.252C51.7544 99.9267 51.9514 99.6319 52.2019 99.3856C52.4509 99.1344 52.7489 98.9367 53.0775 98.8046C53.4061 98.6726 53.7584 98.609 54.1126 98.6178C54.4665 98.6078 54.8188 98.6702 55.1475 98.8013C55.4763 98.9323 55.7745 99.1293 56.0238 99.3798C56.2756 99.625 56.4741 99.9191 56.6069 100.244C56.7397 100.569 56.8041 100.917 56.796 101.268C56.8054 101.621 56.7419 101.972 56.6094 102.299C56.4769 102.627 56.2784 102.923 56.026 103.171L56.0296 103.175Z" fill="white"/>
<path d="M68.7372 103.596C68.3257 103.833 67.8575 103.955 67.3822 103.949C67.0314 103.958 66.6825 103.895 66.3573 103.763C66.032 103.632 65.7375 103.435 65.4921 103.185C65.2431 102.938 65.0472 102.644 64.9163 102.319C64.7854 101.994 64.7221 101.646 64.7305 101.297C64.7201 100.944 64.7818 100.594 64.9118 100.266C65.0417 99.9382 65.2372 99.6402 65.4863 99.3901C65.7314 99.14 66.0254 98.9428 66.3502 98.8107C66.6749 98.6786 67.0235 98.6145 67.3741 98.6223C67.8477 98.6109 68.315 98.7317 68.7232 98.9712C69.1059 99.1964 69.4128 99.53 69.6049 99.9295L70.7024 99.298C70.413 98.7006 69.9513 98.2028 69.3764 97.8684C68.7699 97.5124 68.076 97.3312 67.3722 97.3451C66.848 97.3313 66.3265 97.425 65.8402 97.6204C65.3538 97.8158 64.9129 98.1087 64.5449 98.481C64.1764 98.8489 63.8868 99.2876 63.6935 99.7704C63.5003 100.253 63.4075 100.77 63.4207 101.29C63.4088 101.809 63.5031 102.326 63.6978 102.808C63.8926 103.291 64.1836 103.728 64.5534 104.095C64.9222 104.467 65.3639 104.759 65.8509 104.953C66.3379 105.147 66.8598 105.24 67.3841 105.224C68.0876 105.233 68.7802 105.05 69.3867 104.695C69.9699 104.359 70.4481 103.868 70.7683 103.277L69.6547 102.631C69.4474 103.033 69.129 103.368 68.7372 103.596Z" fill="white"/>
<path d="M78.3046 98.4717C77.9364 98.1021 77.4968 97.8108 77.0123 97.6155C76.5278 97.4202 76.0086 97.325 75.4861 97.3356C74.9651 97.326 74.4476 97.4225 73.9653 97.6194C73.4831 97.8162 73.0463 98.1091 72.6817 98.4802C72.3067 98.8445 72.0111 99.282 71.8134 99.7653C71.6157 100.249 71.5202 100.767 71.5328 101.289C71.5225 101.811 71.62 102.329 71.8191 102.812C72.0181 103.294 72.3147 103.731 72.6902 104.094C73.0565 104.463 73.4943 104.754 73.977 104.949C74.4598 105.144 74.9773 105.239 75.4981 105.229C76.0204 105.237 76.539 105.14 77.0228 104.944C77.5065 104.748 77.9455 104.456 78.3131 104.086C78.6891 103.722 78.9858 103.285 79.1847 102.801C79.3836 102.318 79.4804 101.799 79.469 101.277C79.4795 100.755 79.3815 100.236 79.1811 99.753C78.9807 99.2703 78.6823 98.834 78.3046 98.4717ZM77.391 103.184C77.1444 103.434 76.849 103.63 76.5231 103.762C76.1972 103.894 75.8477 103.958 75.4961 103.95C75.1471 103.958 74.8001 103.894 74.4766 103.763C74.1531 103.633 73.8598 103.437 73.6148 103.189C73.3625 102.941 73.1638 102.644 73.031 102.317C72.8982 101.99 72.8341 101.638 72.8426 101.285C72.8326 100.932 72.8955 100.581 73.0273 100.253C73.1592 99.9249 73.3572 99.6274 73.609 99.3788C73.8531 99.1299 74.1457 98.9333 74.4689 98.8013C74.792 98.6692 75.1389 98.6045 75.4881 98.6111C75.8397 98.6023 76.1895 98.6654 76.5158 98.7965C76.842 98.9276 77.1379 99.1238 77.3852 99.3731C77.6381 99.6208 77.8372 99.9176 77.97 100.245C78.1029 100.573 78.1667 100.924 78.1574 101.277C78.1674 101.63 78.1045 101.982 77.9727 102.31C77.8409 102.638 77.6429 102.935 77.391 103.184Z" fill="white"/>
<path d="M89.1401 97.3151C88.0839 97.3167 87.2964 97.7431 86.7778 98.5942C86.3152 97.7458 85.577 97.3217 84.563 97.3221C84.1155 97.3042 83.6715 97.4065 83.2772 97.6182C82.883 97.8299 82.5531 98.1433 82.3219 98.5255L82.3204 97.5202L81.0159 97.5222L81.0273 105.024L82.3353 105.022L82.329 100.85C82.3278 100.091 82.5106 99.5211 82.8774 99.1405C83.0534 98.954 83.267 98.8066 83.504 98.708C83.7411 98.6094 83.9964 98.5617 84.2532 98.5682C84.4713 98.5573 84.6891 98.5945 84.891 98.6773C85.0929 98.7601 85.274 98.8864 85.4211 99.0471C85.7086 99.366 85.8501 99.8149 85.851 100.396L85.858 105.017L87.1678 105.015L87.1614 100.843C87.1603 100.074 87.3355 99.5004 87.6641 99.1262C87.8329 98.9391 88.0411 98.7915 88.2737 98.6938C88.5064 98.5961 88.7578 98.5508 89.01 98.561C89.2337 98.5513 89.4568 98.589 89.6648 98.6716C89.8728 98.7541 90.0609 98.8796 90.2166 99.0399C90.5182 99.3587 90.6667 99.8076 90.6676 100.388L90.6746 105.01L91.9861 105.008L91.9791 100.341C91.9776 99.4051 91.7154 98.668 91.1923 98.1296C90.9272 97.8574 90.6073 97.6441 90.2536 97.5037C89.8999 97.3633 89.5205 97.2991 89.1401 97.3151Z" fill="white"/>
<path d="M100.643 98.4467C100.299 98.0785 99.8811 97.7864 99.4165 97.5891C98.952 97.3919 98.4511 97.294 97.9462 97.3017C96.7033 97.3036 95.7534 97.7997 95.1053 98.7902L95.1033 97.5007L93.7918 97.5027L93.8077 108.005L95.1157 108.003L95.1092 103.711C95.7603 104.7 96.7117 105.195 97.9546 105.193C98.4595 105.199 98.9601 105.1 99.4241 104.901C99.888 104.703 100.305 104.409 100.648 104.04C101.012 103.671 101.297 103.234 101.488 102.753C101.679 102.272 101.771 101.758 101.758 101.242C101.77 100.725 101.677 100.212 101.485 99.7315C101.294 99.2514 101.007 98.8145 100.643 98.4467ZM99.6856 103.15C99.4403 103.402 99.1454 103.602 98.8194 103.735C98.4934 103.869 98.1432 103.934 97.7907 103.927C97.4358 103.937 97.0826 103.873 96.7534 103.74C96.4241 103.608 96.126 103.409 95.8777 103.156C95.6258 102.906 95.4275 102.608 95.2951 102.279C95.1626 101.951 95.0987 101.599 95.1072 101.245C95.0978 100.89 95.1607 100.538 95.2922 100.209C95.4236 99.8795 95.6209 99.5803 95.8719 99.3294C96.1198 99.0763 96.4174 98.8768 96.7462 98.7435C97.075 98.6102 97.4278 98.5459 97.7826 98.5546C98.1348 98.5462 98.4851 98.6102 98.8114 98.7425C99.1378 98.8748 99.4334 99.0726 99.6798 99.3236C99.9313 99.5741 100.129 99.8727 100.262 100.201C100.394 100.53 100.458 100.882 100.45 101.237C100.459 101.59 100.396 101.943 100.265 102.272C100.134 102.6 99.9364 102.899 99.6856 103.15Z" fill="white"/>
<path d="M109.555 97.479L109.557 98.7685C108.901 97.78 107.952 97.2867 106.708 97.2885C106.203 97.2822 105.703 97.3816 105.239 97.5802C104.775 97.7789 104.359 98.0724 104.016 98.4418C103.652 98.8103 103.367 99.2479 103.176 99.7286C102.985 100.209 102.893 100.723 102.906 101.24C102.895 101.757 102.988 102.27 103.181 102.751C103.373 103.231 103.66 103.667 104.024 104.035C104.368 104.403 104.786 104.695 105.25 104.893C105.714 105.09 106.215 105.188 106.72 105.18C107.966 105.178 108.914 104.681 109.564 103.69L109.566 104.981L110.874 104.979L110.863 97.477L109.555 97.479ZM108.796 103.143C108.548 103.397 108.25 103.596 107.921 103.73C107.592 103.864 107.238 103.928 106.883 103.92C106.531 103.929 106.181 103.865 105.855 103.732C105.529 103.599 105.233 103.401 104.988 103.149C104.735 102.9 104.537 102.602 104.404 102.273C104.271 101.944 104.207 101.592 104.216 101.238C104.206 100.884 104.269 100.531 104.401 100.202C104.533 99.8725 104.73 99.5734 104.982 99.3228C105.227 99.0709 105.522 98.8721 105.848 98.7388C106.173 98.6055 106.523 98.5405 106.875 98.548C107.23 98.5387 107.583 98.6021 107.913 98.7344C108.242 98.8667 108.541 99.065 108.79 99.317C109.041 99.5674 109.239 99.866 109.372 100.195C109.504 100.524 109.568 100.876 109.56 101.23C109.569 101.583 109.505 101.933 109.374 102.261C109.242 102.589 109.046 102.887 108.796 103.136L108.796 103.143Z" fill="white"/>
<path d="M116.598 97.2736C115.504 97.2753 114.692 97.7017 114.162 98.5528L114.16 97.4721L112.852 97.474L112.863 104.976L114.171 104.974L114.165 100.997C114.164 100.157 114.364 99.5344 114.765 99.1291C114.972 98.9239 115.22 98.7638 115.492 98.6589C115.765 98.554 116.056 98.5066 116.348 98.5196C116.599 98.505 116.85 98.5417 117.085 98.6277C117.321 98.7136 117.537 98.847 117.719 99.0193C118.05 99.3557 118.218 99.8274 118.219 100.436L118.226 104.968L119.534 104.966L119.527 100.361C119.525 99.4096 119.258 98.6568 118.726 98.102C118.188 97.5484 117.482 97.2723 116.598 97.2736Z" fill="white"/>
<path d="M126.436 97.4536L124.276 103.338L121.707 97.4608L120.299 97.4629L123.592 104.928L123.455 105.22C123.026 106.31 122.349 106.821 121.424 106.753L121.426 107.968C122.142 108.029 122.856 107.816 123.421 107.372C124.042 106.861 124.507 106.188 124.765 105.428L127.825 97.4568L126.436 97.4536Z" fill="white"/>
<path d="M10.9395 71.615V68.457H0V87.1803H10.9395V84.0223H3.25509V78.952H9.90083V75.794H3.25156V71.615H10.9395Z" fill="white"/>
<path d="M21.4242 74.0019L21.4348 81.0003C21.4365 82.1319 21.2301 82.9796 20.8224 83.5188C20.4148 84.058 19.7393 84.3503 18.8432 84.3516C17.9471 84.353 17.2777 84.0751 16.8597 83.5248C16.4416 82.9745 16.2432 82.1397 16.2414 81.0081L16.2309 74.0097L12.9775 74.0146L12.9881 81.0131C12.9914 83.1727 13.522 84.8141 14.5887 85.8932C15.6554 86.9723 17.0805 87.5175 18.848 87.5149C20.6155 87.5122 22.0459 86.9609 23.1023 85.8803C24.1587 84.7997 24.6826 83.1551 24.6793 80.9954L24.6687 73.997L21.4242 74.0019Z" fill="white"/>
<path d="M32.5608 73.924C30.8655 73.9266 29.479 74.455 28.4437 75.518C27.4084 76.581 26.8809 78.1748 26.8841 80.2784L26.8947 87.2785L30.1445 87.2736L30.1339 80.2735C30.1307 78.1681 30.9548 77.0914 32.5814 77.0855L32.5766 73.9275L32.5608 73.924Z" fill="white"/>
<path d="M45.8549 75.7495C45.2214 75.1034 44.4625 74.5928 43.6245 74.2487C42.7865 73.9046 41.8869 73.7342 40.9806 73.748C40.0743 73.7368 39.1752 73.9097 38.3382 74.2564C37.5012 74.603 36.7438 75.1161 36.1125 75.7642C35.4679 76.3974 34.9562 77.152 34.6071 77.9841C34.2679 78.8202 34.0975 79.7147 34.1059 80.6165C34.0935 81.5205 34.2664 82.4175 34.6139 83.2526C34.9615 84.0877 35.4764 84.8433 36.1272 85.4732C36.7596 86.121 37.5182 86.6333 38.3563 86.9787C39.1945 87.3241 40.0946 87.4952 41.0014 87.4817C41.9078 87.4934 42.8071 87.3206 43.6441 86.9739C44.4812 86.6272 45.2384 86.114 45.8696 85.4655C46.5182 84.8345 47.0308 84.0782 47.3761 83.243C47.7215 82.4078 47.8922 81.5112 47.8779 80.608C47.8907 79.7035 47.7177 78.806 47.3698 77.9705C47.022 77.1351 46.5064 76.3792 45.8549 75.7495ZM43.6058 83.2461C43.2729 83.5918 42.8712 83.8644 42.4264 84.0463C41.9816 84.2282 41.5036 84.3156 41.023 84.3026C40.539 84.3153 40.0575 84.2288 39.6085 84.0484C39.1594 83.868 38.7523 83.5976 38.4124 83.2539C38.0678 82.9088 37.7963 82.4981 37.6142 82.0462C37.432 81.5944 37.3429 81.1107 37.3522 80.6239C37.3403 80.1356 37.4274 79.65 37.6082 79.196C37.789 78.7421 38.0598 78.3291 38.4044 77.9819C38.7431 77.6369 39.1493 77.3651 39.5979 77.1834C40.0465 77.0016 40.5277 76.9137 41.0118 76.9253C41.4932 76.912 41.972 76.9994 42.4174 77.1819C42.8628 77.3643 43.2649 77.6378 43.5978 77.9846C43.9337 78.3343 44.1971 78.7466 44.373 79.1979C44.5489 79.6492 44.6338 80.1306 44.6229 80.6146C44.635 81.0983 44.5514 81.5797 44.3769 82.0312C44.2024 82.4827 43.9404 82.8955 43.6058 83.2461Z" fill="white"/>
<path d="M61.6585 75.7252C61.0254 75.0792 60.2668 74.5686 59.4291 74.2245C58.5914 73.8804 57.6921 73.71 56.7861 73.7238C55.8816 73.7115 54.9841 73.8839 54.149 74.2303C53.3139 74.5767 52.5588 75.0899 51.9302 75.7382C51.2851 76.3715 50.7757 77.1287 50.4329 77.964C50.0901 78.7992 49.921 79.6952 49.9359 80.5975L49.9542 92.6732L53.2357 92.6682L53.226 86.2874L53.4552 86.4484C54.4354 87.1283 55.6076 87.4793 56.8016 87.4504C57.7077 87.4621 58.6067 87.2893 59.4434 86.9426C60.2802 86.5959 61.0372 86.0826 61.6679 85.4342C62.3165 84.8032 62.8292 84.047 63.1745 83.2117C63.5198 82.3765 63.6906 81.4799 63.6763 80.5767C63.6887 79.6738 63.5162 78.7778 63.1693 77.9437C62.8223 77.1095 62.3083 76.3546 61.6585 75.7252ZM59.4094 83.2218C59.077 83.5676 58.6756 83.8402 58.2311 84.0221C57.7866 84.2041 57.3088 84.2914 56.8284 84.2784C56.3441 84.2912 55.8624 84.2047 55.413 84.0243C54.9636 83.8439 54.5562 83.5734 54.2161 83.2297C53.8713 82.8846 53.5997 82.4739 53.4176 82.0221C53.2354 81.5702 53.1464 81.0865 53.1558 80.5996C53.1439 80.1114 53.231 79.6257 53.4118 79.1718C53.5926 78.7178 53.8635 78.3049 54.2081 77.9576C54.547 77.6125 54.9536 77.3407 55.4024 77.1589C55.8513 76.9771 56.3329 76.8893 56.8173 76.901C57.2984 76.8876 57.777 76.9749 58.2222 77.1574C58.6673 77.3398 59.0691 77.6134 59.4015 77.9603C59.7374 78.3101 60.0008 78.7224 60.1767 79.1737C60.3525 79.625 60.4374 80.1064 60.4265 80.5904C60.4387 81.0741 60.3551 81.5554 60.1806 82.0069C60.0061 82.4584 59.744 82.8712 59.4094 83.2218Z" fill="white"/>
<path d="M79.3494 80.2586C79.276 78.2657 78.5324 76.6563 77.1434 75.4777C75.8256 74.324 74.1291 73.6918 72.3751 73.7006C71.4745 73.6868 70.581 73.8613 69.7522 74.2128C68.9234 74.5643 68.1778 75.085 67.5633 75.7413C66.9307 76.3823 66.4318 77.142 66.0955 77.9763C65.7593 78.8107 65.5923 79.7032 65.6042 80.6023C65.5916 81.5028 65.7633 82.3964 66.1091 83.2284C66.4548 84.0605 66.9672 84.8135 67.615 85.4414C68.2505 86.0875 69.0118 86.5975 69.852 86.9401C70.6922 87.2827 71.5938 87.4508 72.5015 87.4341C73.8512 87.4404 75.1713 87.0396 76.2883 86.2845C77.3374 85.5883 78.1798 84.6243 78.7276 83.493L74.7788 83.4727C74.0965 84.0021 73.2522 84.2816 72.3876 84.264C71.6369 84.287 70.8979 84.0752 70.2741 83.6584C69.6993 83.2618 69.2941 82.6655 69.1378 81.9864L69.0936 81.811L79.2637 81.7957C79.3379 81.2869 79.3666 80.7725 79.3494 80.2586ZM69.0563 79.2742L69.1405 79.0741C69.7597 77.6082 70.8853 76.8644 72.482 76.8619C73.1952 76.8605 73.8925 77.0715 74.4846 77.4677C75.0826 77.8546 75.5521 78.4094 75.8337 79.0622L75.9203 79.2638L69.0563 79.2742Z" fill="white"/>
<path d="M93.0089 75.6766C92.3787 75.0303 91.6223 74.5195 90.7865 74.1756C89.9506 73.8317 89.0529 73.6619 88.1488 73.6769C87.2424 73.6656 86.3433 73.8385 85.5063 74.1852C84.6693 74.5318 83.912 75.0449 83.2806 75.693C82.6324 76.3243 82.1202 77.0806 81.7751 77.9158C81.4301 78.751 81.2596 79.6475 81.274 80.5506C81.2624 81.4537 81.4356 82.3497 81.7831 83.1838C82.1307 84.018 82.6452 84.7728 83.2953 85.402C83.9278 86.0499 84.6863 86.5621 85.5245 86.9075C86.3626 87.2529 87.2627 87.424 88.1696 87.4105C88.8934 87.4124 89.6081 87.2487 90.2585 86.9319C90.8953 86.6221 91.3137 86.2531 91.4892 85.8335L91.7664 85.2085L91.7694 87.1875L95.0227 87.1826L95.0126 80.5298C95.0255 79.6278 94.8545 78.7326 94.5101 77.8984C94.1657 77.0642 93.655 76.3083 93.0089 75.6766ZM90.7739 83.1749C90.441 83.5206 90.0393 83.7932 89.5946 83.9751C89.1498 84.1571 88.6718 84.2444 88.1912 84.2314C87.7071 84.2441 87.2257 84.1576 86.7766 83.9772C86.3275 83.7968 85.9204 83.5264 85.5806 83.1827C85.2356 82.8378 84.9639 82.4271 84.7818 81.9753C84.5996 81.5234 84.5107 81.0396 84.5203 80.5527C84.508 80.0644 84.5949 79.5786 84.7757 79.1246C84.9566 78.6706 85.2276 78.2577 85.5726 77.9107C85.9112 77.5657 86.3175 77.2939 86.766 77.1122C87.2146 76.9304 87.6959 76.8425 88.18 76.8541C88.6614 76.8408 89.1402 76.9283 89.5856 77.1107C90.031 77.2931 90.4331 77.5666 90.766 77.9134C91.1018 78.2631 91.3652 78.6754 91.5411 79.1267C91.717 79.578 91.8019 80.0594 91.791 80.5434C91.8032 81.0271 91.7196 81.5085 91.5451 81.96C91.3706 82.4115 91.1085 82.8243 90.7739 83.1749Z" fill="white"/>
<path d="M107.312 75.2761C106.254 74.1987 104.822 73.6535 103.053 73.6562C101.284 73.6589 99.8531 74.2084 98.8002 75.289C97.7473 76.3695 97.2041 78.0143 97.2074 80.1722L97.2179 87.1724L100.473 87.1674L100.462 80.1673C100.461 79.0374 100.665 78.1897 101.073 77.6505C101.481 77.1113 102.156 76.8173 103.052 76.8159C103.948 76.8146 104.616 77.0943 105.036 77.6445C105.456 78.1948 105.652 79.0296 105.654 80.1594L105.665 87.1596L108.92 87.1547L108.909 80.1545C108.911 77.9966 108.372 76.3535 107.312 75.2761Z" fill="white"/>
<path d="M123.885 78.8634C123.488 78.1856 122.891 77.6462 122.175 77.3186C121.436 77.0034 120.677 76.735 119.903 76.515C119.091 76.2811 118.318 76.0981 117.626 75.9658C116.96 75.8539 116.331 75.5841 115.792 75.1791C115.547 74.9937 115.349 74.7525 115.216 74.4756C115.082 74.1988 115.017 73.8942 115.026 73.5872C115.024 72.2311 115.95 71.5402 117.783 71.5374C118.688 71.536 119.38 71.7438 119.842 72.1554C120.304 72.5669 120.521 73.1894 120.549 74.0596L123.802 74.0547C123.773 72.3003 123.227 70.9169 122.18 69.9184C121.104 68.892 119.623 68.3749 117.776 68.3777C115.895 68.3805 114.404 68.8231 113.346 69.6949C112.287 70.5667 111.764 71.8342 111.767 73.4834C111.747 74.2879 111.925 75.085 112.284 75.8055C112.586 76.4046 113.039 76.9145 113.6 77.2842C114.172 77.6426 114.784 77.9326 115.423 78.1482C116.098 78.3805 116.781 78.5829 117.456 78.7539C118.13 78.9248 118.768 79.1133 119.325 79.3107C119.86 79.4935 120.346 79.7979 120.743 80.1998C121.122 80.5948 121.328 81.1231 121.316 81.6691C121.318 83.4587 120.209 84.3674 118.015 84.3707C116.949 84.3723 116.078 84.0947 115.426 83.5395C114.801 83.0141 114.468 82.276 114.435 81.362L111.18 81.3669C111.182 82.1892 111.356 83.0021 111.69 83.7538C112.025 84.5055 112.513 85.1794 113.123 85.7325C114.417 86.9288 116.017 87.537 117.879 87.5341C119.779 87.5313 121.389 86.9902 122.662 85.9286C123.935 84.867 124.566 83.4397 124.564 81.6642C124.573 80.5396 124.341 79.5979 123.885 78.8634Z" fill="white"/>
<path d="M133.792 77.1652L133.788 74.0072L131.337 74.0109L131.329 68.6073L128.074 68.6122L128.082 74.0158L126.07 74.0189L126.074 77.1768L128.09 77.1738L128.096 81.0335C128.099 83.1739 128.63 84.7837 129.688 85.8154C130.709 86.8209 132.097 87.3434 133.817 87.3689L133.812 84.2109C132.972 84.1859 132.35 83.9324 131.964 83.4558C131.578 82.9792 131.358 82.1462 131.356 81.0321L131.351 77.1688L133.792 77.1652Z" fill="white"/>
<path d="M144.896 73.9911L144.907 80.9895C144.908 82.1211 144.704 82.9688 144.296 83.5081C143.888 84.0473 143.213 84.3395 142.315 84.3409C141.417 84.3423 140.749 84.0643 140.331 83.5141C139.913 82.9638 139.715 82.129 139.713 80.9974L139.703 73.999L136.456 74.0039L136.467 81.0023C136.47 83.162 137.001 84.8033 138.059 85.8825C139.117 86.9616 140.55 87.5068 142.318 87.5041C143.131 87.5028 143.936 87.3388 144.685 87.0216L144.886 86.9371L144.886 87.2353C144.888 88.7722 144.027 89.5525 142.321 89.5551C141.93 89.5582 141.544 89.4721 141.192 89.3032C140.84 89.1343 140.531 88.8872 140.29 88.5809L136.614 88.5865C137.048 89.7509 137.794 90.7741 138.771 91.5447C139.788 92.3225 141.041 92.7316 142.322 92.7043C144.018 92.7017 145.43 92.1311 146.522 91.0031C147.613 89.8751 148.166 88.4374 148.163 86.7286L148.144 73.9862L144.896 73.9911Z" fill="white"/>
<path d="M151.042 68.543L151.071 87.2662L154.326 87.2613L154.298 68.538L151.042 68.543Z" fill="white"/>
<path d="M170.267 80.2968C170.192 78.3038 169.45 76.6944 168.061 75.5158C166.742 74.3616 165.044 73.7294 163.289 73.7387C162.388 73.7247 161.495 73.8991 160.666 74.2506C159.837 74.6021 159.091 75.1229 158.477 75.7794C157.844 76.4204 157.346 77.1801 157.009 78.0145C156.673 78.8488 156.506 79.7413 156.518 80.6404C156.505 81.5407 156.677 82.4341 157.022 83.2661C157.368 84.0982 157.88 84.8513 158.527 85.4796C159.163 86.1252 159.924 86.6348 160.763 86.9774C161.603 87.3201 162.504 87.4884 163.412 87.4722C164.762 87.4793 166.082 87.0784 167.199 86.3226C168.247 85.6284 169.089 84.6669 169.638 83.5381L165.691 83.5178C165.009 84.0473 164.164 84.3267 163.3 84.3091C162.549 84.3318 161.81 84.1201 161.186 83.7036C160.612 83.3069 160.207 82.7105 160.052 82.0316L160.007 81.8562L170.178 81.8408C170.253 81.3298 170.283 80.8131 170.267 80.2968ZM159.974 79.3123L160.058 79.1122C160.677 77.6463 161.803 76.9025 163.399 76.9C164.113 76.8983 164.81 77.1093 165.402 77.5058C166.001 77.8921 166.471 78.4471 166.753 79.1003L166.838 79.3019L159.974 79.3123Z" fill="white"/>
</svg>
