<svg width="113" height="32" viewBox="0 0 113 32" fill="none" xmlns="http://www.w3.org/2000/svg">
<path d="M33.3413 21.6764V11.1455H36.8504V18.7585H44.4395V21.6799L33.3413 21.6764Z" fill="white"/>
<path d="M58.394 11.1455V17.0769C58.394 18.3162 58.1494 19.3022 57.66 20.035C57.1707 20.7678 56.4702 21.2867 55.5584 21.5919C54.6472 21.8967 53.5081 22.0491 52.1412 22.0491C50.7743 22.0491 49.6353 21.8967 48.724 21.5919C47.8127 21.2872 47.1122 20.7708 46.6224 20.0426C46.1326 19.3145 45.8877 18.3259 45.8877 17.0769V11.1455H49.3968V16.9737C49.3968 17.7305 49.6326 18.2763 50.1044 18.611C50.5762 18.9458 51.2561 19.1131 52.1441 19.1131C53.024 19.1131 53.702 18.9458 54.178 18.611C54.6541 18.2763 54.8914 17.7305 54.8899 16.9737V11.1455H58.394Z" fill="white"/>
<path d="M75.6807 21.6764H72.1716V14.506H72.0898L69.3133 21.6764H66.6671L63.8514 14.4173H63.756V21.6764H60.4377V11.1455H65.8234L67.9592 17.0617H68.0539L70.1484 11.1455H75.6843L75.6807 21.6764Z" fill="white"/>
<path d="M77.7202 21.6764V11.1455H81.2293V21.6799L77.7202 21.6764Z" fill="white"/>
<path d="M95.2996 12.1948C96.4828 13.1182 97.0744 14.5346 97.0744 16.4438C97.0744 18.3531 96.4828 19.7695 95.2996 20.6929C94.1164 21.6164 92.3603 22.0781 90.0313 22.0781C87.7095 22.0781 85.9573 21.6164 84.7745 20.6929C83.5918 19.7695 82.9995 18.3531 82.9976 16.4438C82.9976 14.536 83.5892 13.1196 84.7724 12.1948C85.9556 11.2699 87.7079 10.8082 90.0292 10.8096C92.3596 10.8082 94.1164 11.2699 95.2996 12.1948ZM92.4227 18.5022C92.9571 18.0248 93.2246 17.3387 93.225 16.4438C93.2255 15.549 92.9581 14.8629 92.4227 14.3854C91.8883 13.9085 91.0904 13.67 90.0292 13.67C88.968 13.67 88.1723 13.9085 87.6421 14.3854C87.1115 14.8629 86.8462 15.549 86.8462 16.4438C86.8462 17.3387 87.1115 18.0248 87.6421 18.5022C88.1728 18.9792 88.9684 19.2177 90.0292 19.2177C91.09 19.2177 91.8878 18.9792 92.4227 18.5022Z" fill="white"/>
<path d="M106.384 13.45C105.998 13.2653 105.443 13.173 104.717 13.173C103.974 13.173 103.444 13.2492 103.126 13.4015C102.809 13.5539 102.65 13.7776 102.65 14.0726C102.643 14.1761 102.666 14.2793 102.716 14.3706C102.767 14.462 102.842 14.5377 102.935 14.5893C103.125 14.6974 103.451 14.7761 103.914 14.8255L107.871 15.1794C109.069 15.2875 109.969 15.5973 110.572 16.1089C111.174 16.6205 111.476 17.3927 111.476 18.4256C111.476 19.3994 111.233 20.1518 110.748 20.6828C110.263 21.2138 109.551 21.5802 108.612 21.7819C107.673 21.9837 106.433 22.0846 104.893 22.0846C103.414 22.0846 102.217 21.9763 101.302 21.7598C100.387 21.5432 99.6816 21.1547 99.1866 20.5941C98.6925 20.0341 98.4274 19.2422 98.3914 18.2185H102.476C102.576 18.7795 102.828 19.1658 103.231 19.3772C103.634 19.5887 104.235 19.6945 105.034 19.6945C105.849 19.6945 106.437 19.6132 106.795 19.4507C107.153 19.2881 107.332 19.0342 107.332 18.6888C107.332 18.4035 107.227 18.1957 107.019 18.0655C106.811 17.9353 106.498 17.8517 106.081 17.8147L102.272 17.4165C101.066 17.2891 100.16 16.9889 99.5525 16.5161C98.9455 16.0433 98.6417 15.2907 98.6412 14.2583C98.6412 13.381 98.8838 12.69 99.3688 12.1853C99.8539 11.6806 100.548 11.324 101.45 11.1153C102.352 10.9089 103.483 10.8057 104.843 10.8057C106.194 10.8057 107.318 10.9114 108.216 11.1229C109.113 11.3344 109.814 11.7007 110.317 12.222C110.821 12.7433 111.086 13.4565 111.113 14.3615H107.073C107.046 14.1657 106.968 13.9797 106.848 13.8205C106.727 13.6613 106.568 13.5339 106.384 13.45Z" fill="white"/>
<mask id="path-7-outside-1_373_6971" maskUnits="userSpaceOnUse" x="-0.0876465" y="4.32715" width="29" height="25" fill="black">
<rect fill="white" x="-0.0876465" y="4.32715" width="29" height="25"/>
<path fill-rule="evenodd" clip-rule="evenodd" d="M16.1104 25.1346C15.6808 25.1882 15.2428 25.2158 14.7982 25.2158C14.3502 25.2158 13.909 25.1878 13.4762 25.1334C13.2714 26.2607 12.6785 27.0948 11.8345 27.3784C11.1319 27.6156 10.4602 27.4022 10.3865 27.3788L10.385 27.3784C8.80272 26.8485 8.35284 24.5676 8.23617 22.8965C7.41122 22.2238 6.69704 21.4268 6.1241 20.5351C6.07897 20.7247 6.04343 20.8975 6.01093 21.0556C5.87736 21.7051 5.79494 22.106 5.30758 22.402C4.58071 22.8439 3.66517 22.6223 3.61676 22.6098C2.67987 22.3688 2.2691 21.5661 2.16729 21.3632C1.1706 19.4086 3.40461 17.0199 3.61676 16.7976C3.94126 16.4591 4.27628 16.1822 4.60004 15.953C4.58437 15.7278 4.57641 15.5006 4.57641 15.2715C4.57641 9.77944 9.15286 5.32722 14.7982 5.32722C20.4435 5.32722 25.02 9.77944 25.02 15.2715C25.02 15.5047 25.0117 15.7361 24.9955 15.9653C25.3132 16.192 25.6414 16.4651 25.9597 16.7976C26.1818 17.0199 28.4166 19.4086 27.4184 21.3632C27.3174 21.5647 26.9066 22.3674 25.9697 22.6098C25.9213 22.6223 25.0057 22.8439 24.2789 22.402C23.7942 22.1066 23.7118 21.7068 23.5784 21.0596C23.5462 20.903 23.5109 20.732 23.4663 20.5445C22.8918 21.4363 22.1761 22.2331 21.3495 22.9052C21.232 24.5755 20.781 26.8495 19.2015 27.3784L19.1999 27.3788C19.1262 27.4022 18.4545 27.6156 17.752 27.3784C16.9082 27.0949 16.3154 26.2613 16.1104 25.1346Z"/>
</mask>
<path fill-rule="evenodd" clip-rule="evenodd" d="M16.1104 25.1346C15.6808 25.1882 15.2428 25.2158 14.7982 25.2158C14.3502 25.2158 13.909 25.1878 13.4762 25.1334C13.2714 26.2607 12.6785 27.0948 11.8345 27.3784C11.1319 27.6156 10.4602 27.4022 10.3865 27.3788L10.385 27.3784C8.80272 26.8485 8.35284 24.5676 8.23617 22.8965C7.41122 22.2238 6.69704 21.4268 6.1241 20.5351C6.07897 20.7247 6.04343 20.8975 6.01093 21.0556C5.87736 21.7051 5.79494 22.106 5.30758 22.402C4.58071 22.8439 3.66517 22.6223 3.61676 22.6098C2.67987 22.3688 2.2691 21.5661 2.16729 21.3632C1.1706 19.4086 3.40461 17.0199 3.61676 16.7976C3.94126 16.4591 4.27628 16.1822 4.60004 15.953C4.58437 15.7278 4.57641 15.5006 4.57641 15.2715C4.57641 9.77944 9.15286 5.32722 14.7982 5.32722C20.4435 5.32722 25.02 9.77944 25.02 15.2715C25.02 15.5047 25.0117 15.7361 24.9955 15.9653C25.3132 16.192 25.6414 16.4651 25.9597 16.7976C26.1818 17.0199 28.4166 19.4086 27.4184 21.3632C27.3174 21.5647 26.9066 22.3674 25.9697 22.6098C25.9213 22.6223 25.0057 22.8439 24.2789 22.402C23.7942 22.1066 23.7118 21.7068 23.5784 21.0596C23.5462 20.903 23.5109 20.732 23.4663 20.5445C22.8918 21.4363 22.1761 22.2331 21.3495 22.9052C21.232 24.5755 20.781 26.8495 19.2015 27.3784L19.1999 27.3788C19.1262 27.4022 18.4545 27.6156 17.752 27.3784C16.9082 27.0949 16.3154 26.2613 16.1104 25.1346Z" fill="#404040"/>
<path d="M16.1104 25.1346L17.0943 24.9556L16.925 24.0253L15.9867 24.1423L16.1104 25.1346ZM13.4762 25.1334L13.6009 24.1412L12.6616 24.0232L12.4923 24.9547L13.4762 25.1334ZM11.8345 27.3784L11.516 26.4304L11.5146 26.4309L11.8345 27.3784ZM10.3865 27.3788L10.6892 26.4257L10.6887 26.4256L10.3865 27.3788ZM10.385 27.3784L10.0675 28.3266L10.0751 28.3292L10.0828 28.3316L10.385 27.3784ZM8.23617 22.8965L9.23374 22.8268L9.20359 22.395L8.8681 22.1214L8.23617 22.8965ZM6.1241 20.5351L6.96542 19.9946L5.69538 18.0179L5.15129 20.3035L6.1241 20.5351ZM6.01093 21.0556L6.99044 21.257V21.257L6.01093 21.0556ZM5.30758 22.402L4.78837 21.5474L4.78812 21.5476L5.30758 22.402ZM3.61676 22.6098L3.86614 21.6414L3.86591 21.6414L3.61676 22.6098ZM2.16729 21.3632L3.06114 20.9147L3.05815 20.9089L2.16729 21.3632ZM3.61676 16.7976L2.89494 16.1055L2.8933 16.1072L3.61676 16.7976ZM4.60004 15.953L5.17789 16.7692L5.63664 16.4444L5.59763 15.8836L4.60004 15.953ZM24.9955 15.9653L23.998 15.8946L23.9584 16.4537L24.4146 16.7793L24.9955 15.9653ZM25.9597 16.7976L25.2374 17.4891L25.2448 17.4968L25.2523 17.5043L25.9597 16.7976ZM27.4184 21.3632L26.5278 20.9083L26.5246 20.9148L27.4184 21.3632ZM25.9697 22.6098L26.2191 23.5782L26.2202 23.5779L25.9697 22.6098ZM24.2789 22.402L23.7584 23.2559L23.7594 23.2565L24.2789 22.402ZM23.5784 21.0596L24.5578 20.8577L23.5784 21.0596ZM23.4663 20.5445L24.4391 20.3129L23.8958 18.0309L22.6255 20.003L23.4663 20.5445ZM21.3495 22.9052L20.7186 22.1293L20.3823 22.4028L20.3519 22.8351L21.3495 22.9052ZM19.2015 27.3784L19.5043 28.3314L19.5116 28.3291L19.519 28.3266L19.2015 27.3784ZM19.1999 27.3788L19.5026 28.3319L19.5028 28.3319L19.1999 27.3788ZM17.752 27.3784L18.0719 26.4309L18.0704 26.4304L17.752 27.3784ZM14.7982 26.2158C15.2843 26.2158 15.7636 26.1856 16.2342 26.127L15.9867 24.1423C15.598 24.1908 15.2014 24.2158 14.7982 24.2158V26.2158ZM13.3516 26.1256C13.8256 26.1852 14.3085 26.2158 14.7982 26.2158V24.2158C14.392 24.2158 13.9924 24.1904 13.6009 24.1412L13.3516 26.1256ZM12.4923 24.9547C12.3274 25.8629 11.8986 26.3019 11.516 26.4304L12.1529 28.3263C13.4585 27.8877 14.2155 26.6586 14.4601 25.3122L12.4923 24.9547ZM11.5146 26.4309C11.3378 26.4906 11.1463 26.4986 10.9746 26.4813C10.8073 26.4645 10.695 26.4276 10.6892 26.4257L10.0838 28.3319C10.1904 28.3658 11.1295 28.6719 12.1544 28.3258L11.5146 26.4309ZM10.6887 26.4256L10.6872 26.4251L10.0828 28.3316L10.0843 28.3321L10.6887 26.4256ZM10.7025 26.4301C10.3237 26.3033 9.97332 25.9325 9.69444 25.2067C9.42124 24.4957 9.28919 23.621 9.23374 22.8268L7.2386 22.9661C7.29982 23.8431 7.45105 24.9443 7.82753 25.9241C8.19833 26.889 8.86403 27.9236 10.0675 28.3266L10.7025 26.4301ZM5.28279 21.0757C5.91348 22.0573 6.69866 22.9331 7.60423 23.6715L8.8681 22.1214C8.12378 21.5145 7.4806 20.7964 6.96542 19.9946L5.28279 21.0757ZM5.15129 20.3035C5.1021 20.5102 5.06372 20.6971 5.03142 20.8542L6.99044 21.257C7.02315 21.0979 7.05583 20.9393 7.09692 20.7667L5.15129 20.3035ZM5.03142 20.8542C4.99682 21.0225 4.97147 21.1447 4.94435 21.2508C4.91792 21.3542 4.89663 21.414 4.87991 21.4512C4.86531 21.4837 4.85603 21.4947 4.85238 21.4988C4.84857 21.5032 4.83324 21.5201 4.78837 21.5474L5.82679 23.2567C6.73597 22.7044 6.86882 21.8485 6.99044 21.257L5.03142 20.8542ZM4.78812 21.5476C4.64228 21.6362 4.4387 21.6775 4.21306 21.6763C3.99484 21.6752 3.83943 21.6345 3.86614 21.6414L3.36738 23.5782C3.4425 23.5976 3.76906 23.674 4.20243 23.6763C4.62838 23.6786 5.246 23.6098 5.82704 23.2565L4.78812 21.5476ZM3.86591 21.6414C3.39056 21.5191 3.15195 21.0958 3.06112 20.9147L1.27346 21.8116C1.38624 22.0364 1.96919 23.2185 3.36762 23.5783L3.86591 21.6414ZM3.05815 20.9089C2.78813 20.3794 2.90682 19.6835 3.32241 18.8988C3.71849 18.151 4.25539 17.5768 4.34022 17.4879L2.8933 16.1072C2.76598 16.2406 2.0798 16.9719 1.55502 17.9627C1.04973 18.9167 0.549761 20.3924 1.27644 21.8174L3.05815 20.9089ZM4.33858 17.4896C4.61341 17.203 4.89873 16.9668 5.17789 16.7692L4.02219 15.1369C3.65383 15.3977 3.26911 15.7152 2.89494 16.1055L4.33858 17.4896ZM3.57641 15.2715C3.57641 15.5238 3.58518 15.7742 3.60245 16.0224L5.59763 15.8836C5.58357 15.6815 5.57641 15.4774 5.57641 15.2715H3.57641ZM14.7982 4.32722C8.62669 4.32722 3.57641 9.20139 3.57641 15.2715H5.57641C5.57641 10.3575 9.67902 6.32722 14.7982 6.32722V4.32722ZM26.02 15.2715C26.02 9.20139 20.9697 4.32722 14.7982 4.32722V6.32722C19.9174 6.32722 24.02 10.3575 24.02 15.2715H26.02ZM25.993 16.036C26.0109 15.7833 26.02 15.5283 26.02 15.2715H24.02C24.02 15.4811 24.0125 15.6889 23.998 15.8946L25.993 16.036ZM24.4146 16.7793C24.6882 16.9745 24.9677 17.2074 25.2374 17.4891L26.682 16.106C26.3151 15.7228 25.9382 15.4095 25.5764 15.1513L24.4146 16.7793ZM25.2523 17.5043C25.3256 17.5777 25.8657 18.1509 26.2635 18.8998C26.6798 19.6836 26.7981 20.3791 26.5279 20.9083L28.309 21.818C29.0369 20.3926 28.5369 18.9165 28.0298 17.9617C27.5042 16.9721 26.8159 16.2397 26.6672 16.0908L25.2523 17.5043ZM26.5246 20.9148C26.4347 21.094 26.1958 21.5184 25.7192 21.6417L26.2202 23.5779C27.6174 23.2164 28.2 22.0354 28.3123 21.8115L26.5246 20.9148ZM25.7203 21.6414C25.747 21.6345 25.5916 21.6752 25.3734 21.6763C25.1478 21.6775 24.9442 21.6362 24.7983 21.5476L23.7594 23.2565C24.3404 23.6098 24.9581 23.6786 25.384 23.6763C25.8174 23.674 26.1439 23.5976 26.2191 23.5782L25.7203 21.6414ZM24.7994 21.5482C24.7551 21.5212 24.7401 21.5045 24.7364 21.5003C24.7329 21.4962 24.7236 21.4853 24.7091 21.4529C24.6924 21.4157 24.6711 21.3561 24.6448 21.253C24.6177 21.1472 24.5924 21.0254 24.5578 20.8577L22.599 21.2614C22.7204 21.8503 22.8532 22.7041 23.7584 23.2559L24.7994 21.5482ZM24.5578 20.8577C24.5258 20.7022 24.4877 20.5172 24.4391 20.3129L22.4934 20.7761C22.5341 20.9468 22.5665 21.1039 22.599 21.2614L24.5578 20.8577ZM21.9803 23.6811C22.8877 22.9433 23.6747 22.0676 24.307 21.086L22.6255 20.003C22.109 20.8049 21.4644 21.5229 20.7186 22.1293L21.9803 23.6811ZM20.3519 22.8351C20.2961 23.6287 20.1637 24.5014 19.8906 25.2104C19.6119 25.9338 19.2621 26.3035 18.8839 26.4301L19.519 28.3266C20.7204 27.9243 21.3858 26.8926 21.7569 25.9293C22.1336 24.9515 22.2854 23.852 22.347 22.9753L20.3519 22.8351ZM18.8986 26.4253L18.8971 26.4258L19.5028 28.3319L19.5043 28.3314L18.8986 26.4253ZM18.8973 26.4257C18.8915 26.4276 18.7792 26.4645 18.6119 26.4813C18.4401 26.4986 18.2486 26.4906 18.0719 26.4309L17.4321 28.3258C18.4569 28.6719 19.396 28.3658 19.5026 28.3319L18.8973 26.4257ZM18.0704 26.4304C17.688 26.302 17.2594 25.8632 17.0943 24.9556L15.1266 25.3137C15.3715 26.6595 16.1285 27.8879 17.4335 28.3263L18.0704 26.4304Z" fill="white" mask="url(#path-7-outside-1_373_6971)"/>
<path d="M14.7986 20.5002C18.5586 20.5002 21.6067 18.1591 21.6067 15.2711C21.6067 12.3831 18.5586 10.042 14.7986 10.042C11.0386 10.042 7.99048 12.3831 7.99048 15.2711C7.99048 18.1591 11.0386 20.5002 14.7986 20.5002Z" fill="white"/>
<path d="M11.8814 16.5969C12.6949 16.5969 13.3544 15.7386 13.3544 14.6798C13.3544 13.621 12.6949 12.7627 11.8814 12.7627C11.0679 12.7627 10.4084 13.621 10.4084 14.6798C10.4084 15.7386 11.0679 16.5969 11.8814 16.5969Z" fill="#404040"/>
<path d="M17.4659 16.5969C18.2794 16.5969 18.9389 15.7386 18.9389 14.6798C18.9389 13.621 18.2794 12.7627 17.4659 12.7627C16.6524 12.7627 15.9929 13.621 15.9929 14.6798C15.9929 15.7386 16.6524 16.5969 17.4659 16.5969Z" fill="#404040"/>
</svg>
