<svg xmlns="http://www.w3.org/2000/svg" viewBox="0 0 50 50"><defs><style>.cls-1{fill:#8eb0ec;}.cls-2{fill:none;}</style></defs><g id="Слой_2" data-name="Слой 2"><g id="Слой_1-2" data-name="Слой 1"><path class="cls-1" d="M47.68,37.69,37.19,27.2a7.17,7.17,0,0,0-3.94-2l-.49-.06,5.07-5.07.13,0A10,10,0,0,0,48.75,5.94a1.19,1.19,0,0,0-.89-.68,1.22,1.22,0,0,0-1.07.34L43.36,9H40.94V6.62l3.43-3.43a1.26,1.26,0,0,0,.34-1.07,1.22,1.22,0,0,0-.68-.9A10,10,0,0,0,29.88,12l0,.13L24,18.09,15.6,9.75l1.22-1.22a1.21,1.21,0,0,0,.34-1,1.16,1.16,0,0,0-.58-.88L6.23.42A1.16,1.16,0,0,0,5.46.26,1.19,1.19,0,0,0,4.75.6L.61,4.75a1.23,1.23,0,0,0-.35.7,1.3,1.3,0,0,0,.16.78L6.63,16.58a1.21,1.21,0,0,0,.9.58,1.19,1.19,0,0,0,1-.34L9.75,15.6,18.09,24,12.14,29.9H12A10,10,0,0,0,1.22,44a1.2,1.2,0,0,0,.9.67,1.21,1.21,0,0,0,1.06-.32l3.43-3.44H9v2.43L5.6,46.79a1.23,1.23,0,0,0,.34,2,10.08,10.08,0,0,0,4.29,1h0A10,10,0,0,0,20.09,38l0-.13,5.06-5.07.08.5a7.17,7.17,0,0,0,2,3.94L37.68,47.69a7.07,7.07,0,0,0,10-10ZM7.92,14,3,5.79,5.79,3,14,7.91Zm3.54-.12,2.43-2.43,8.34,8.36-2.42,2.41Zm6.42,22.7a1.4,1.4,0,0,0-.32.55,1.3,1.3,0,0,0,0,.62,7.57,7.57,0,0,1-7.33,9.53,7.42,7.42,0,0,1-1.05-.08l-.5-.07,2.43-2.42a1.21,1.21,0,0,0,.35-.85V39.72a1.21,1.21,0,0,0-1.21-1.21H6.11a1.27,1.27,0,0,0-.47.09,1.19,1.19,0,0,0-.39.27L2.82,41.29l-.07-.5a7.59,7.59,0,0,1,9.46-8.38,1.34,1.34,0,0,0,.63,0,1.2,1.2,0,0,0,.54-.32L32.1,13.39a1.35,1.35,0,0,0,.31-.56,1.09,1.09,0,0,0,0-.62,7.56,7.56,0,0,1,8.38-9.45l.5.06L38.87,5.26a1.14,1.14,0,0,0-.36.84v4.15a1.21,1.21,0,0,0,1.21,1.21h4.14a1.26,1.26,0,0,0,.47-.08,1.08,1.08,0,0,0,.39-.28l2.43-2.41.07.48a7.58,7.58,0,0,1-9.46,8.4,1.12,1.12,0,0,0-.63,0,1.1,1.1,0,0,0-.54.31ZM46,46a4.65,4.65,0,0,1-6.57,0L28.91,35.47a4.64,4.64,0,0,1,6.57-6.56L46,39.4A4.65,4.65,0,0,1,46,46Z"/><rect class="cls-2" width="50" height="50"/></g></g></svg>