<svg xmlns="http://www.w3.org/2000/svg" xmlns:xlink="http://www.w3.org/1999/xlink" viewBox="0 0 49.5 47.5"><defs><style>.cls-1{fill:none;}.cls-2{clip-path:url(#clip-path);}.cls-3{fill:#8eb0ec;fill-rule:evenodd;}</style><clipPath id="clip-path" transform="translate(-0.25 -1.25)"><rect class="cls-1" width="50" height="50"/></clipPath></defs><g id="Слой_2" data-name="Слой 2"><g id="Слой_1-2" data-name="Слой 1"><g class="cls-2"><path class="cls-3" d="M49.58,19.77a1.55,1.55,0,0,0-.39-.52l-9.1-8.43a90.23,90.23,0,0,0-8-6.94A11.93,11.93,0,0,0,25,1.25a11.91,11.91,0,0,0-7,2.63,90.27,90.27,0,0,0-8.1,7l-9,8.35a1.58,1.58,0,0,0-.4.53,1.56,1.56,0,0,0-.17.63,1.47,1.47,0,0,0,.09.66,1.51,1.51,0,0,0,.33.56A1.43,1.43,0,0,0,1.2,22a1.46,1.46,0,0,0,.62.16,1.57,1.57,0,0,0,.64-.11A1.73,1.73,0,0,0,3,21.71l.94-.87V35c0,2.09,0,3.73.1,5.07a9.66,9.66,0,0,0,.89,3.65,9.16,9.16,0,0,0,4,4.07,9.23,9.23,0,0,0,3.58.9c1.32.11,2.93.11,5,.11H32.55c2,0,3.65,0,5-.11a8.68,8.68,0,0,0,7.56-5A9.54,9.54,0,0,0,46,40c.11-1.34.11-3,.11-5.07V20.83l.94.87a1.6,1.6,0,0,0,.54.36,1.76,1.76,0,0,0,.64.11,1.5,1.5,0,0,0,.62-.16,1.43,1.43,0,0,0,.52-.39,1.51,1.51,0,0,0,.33-.56,1.47,1.47,0,0,0,.09-.66A1.56,1.56,0,0,0,49.58,19.77ZM30.37,45.43H19.64V33.27c0-.75,0-1.2,0-1.54a1.33,1.33,0,0,1,0-.34A.86.86,0,0,1,20.1,31a1.94,1.94,0,0,1,.41-.08c.33,0,.77,0,1.5,0h6q.73,0,1.5,0a1.48,1.48,0,0,1,.35.05l0,0a.83.83,0,0,1,.37.37,1.4,1.4,0,0,1,.07.41c0,.33,0,.78,0,1.53ZM42.82,34.87c0,2.27,0,3.72-.09,4.88a6.57,6.57,0,0,1-.54,2.42,6,6,0,0,1-2.57,2.61,6.07,6.07,0,0,1-2.37.55c-.92.08-2,.1-3.39.1h-.25V33.2c0-.64,0-1.24,0-1.74a4.11,4.11,0,0,0-.41-1.63A4.16,4.16,0,0,0,31.36,28a4,4,0,0,0-1.59-.41c-.48,0-1.08,0-1.71,0H21.94c-.65,0-1.23,0-1.7,0a4,4,0,0,0-1.6.41,4.21,4.21,0,0,0-1.8,1.84,4.53,4.53,0,0,0-.41,1.63c0,.5,0,1.1,0,1.74V45.43h-.26c-1.43,0-2.5,0-3.38-.1a6.27,6.27,0,0,1-2.38-.55,5.93,5.93,0,0,1-2.56-2.61,6.57,6.57,0,0,1-.54-2.42c-.1-1.19-.1-2.73-.1-4.88v-17l4.71-4.36A89.16,89.16,0,0,1,19.8,6.61a8.85,8.85,0,0,1,5.2-2,8.86,8.86,0,0,1,5.21,2,88.23,88.23,0,0,1,7.91,6.86l4.7,4.36Z" transform="translate(-0.25 -1.25)"/></g></g></g></svg>