<svg width="52" height="50" viewBox="0 0 52 50" fill="none" xmlns="http://www.w3.org/2000/svg">
<mask id="path-1-outside-1_373_7115" maskUnits="userSpaceOnUse" x="0" y="0.000488281" width="52" height="50" fill="black">
<rect fill="white" y="0.000488281" width="52" height="50"/>
<path d="M50.7086 6.53615C50.2961 6.31573 40.5041 1.1675 31.6664 4.29816C23.3965 7.22651 17.0138 1.21473 16.9507 1.15411C16.8957 1.10151 16.8303 1.06081 16.7588 1.03454C16.6873 1.00827 16.6111 0.996996 16.535 1.00143C16.459 1.00586 16.3846 1.0259 16.3166 1.0603C16.2487 1.09469 16.1885 1.14271 16.14 1.20134C11.1359 7.30602 12.341 13.7539 13.091 16.2422C13.304 16.9476 13.6376 17.6119 14.0737 18.2299L12.1281 20.6521C10.2439 23.1294 9.42453 26.2593 9.88195 29.2522C10.0176 30.1307 9.7534 30.9753 9.15796 31.5696L7.54672 33.1779L6.76595 32.3986C6.66022 32.2994 6.52062 32.2443 6.37556 32.2443C6.2305 32.2443 6.0909 32.2994 5.98517 32.3986L1.16172 37.2146C1.11045 37.2658 1.06978 37.3265 1.04203 37.3934C1.01428 37.4602 1 37.5319 1 37.6043C1 37.6766 1.01428 37.7483 1.04203 37.8152C1.06978 37.882 1.11045 37.9428 1.16172 37.9939L12.0263 48.8391C12.0776 48.8902 12.1384 48.9308 12.2054 48.9585C12.2724 48.9862 12.3442 49.0005 12.4167 49.0005C12.4892 49.0005 12.561 48.9862 12.628 48.9585C12.695 48.9308 12.7558 48.8902 12.8071 48.8391L17.6313 44.0238C17.6826 43.9726 17.7233 43.9119 17.751 43.845C17.7788 43.7782 17.7931 43.7065 17.7931 43.6342C17.7931 43.5618 17.7788 43.4901 17.751 43.4233C17.7233 43.3564 17.6826 43.2957 17.6313 43.2445L17.2473 42.8611L19.297 40.816C19.6861 40.426 20.1893 40.1697 20.7339 40.0839L24.4667 39.4864C26.3326 39.0787 28.0551 38.2269 29.511 37.0123C35.56 35.7984 43.9774 41.7158 44.0626 41.7772C44.1805 41.8608 44.3266 41.8949 44.4695 41.8723C44.6123 41.8496 44.7406 41.7719 44.8268 41.6559C49.3008 35.6292 49.259 30.4455 47.5642 22.4075C45.9475 14.771 50.8553 7.40363 50.9058 7.33121C50.9489 7.26719 50.9781 7.19486 50.9916 7.11887C51.005 7.04289 51.0024 6.96495 50.9838 6.89005C50.9652 6.81516 50.9311 6.74497 50.8837 6.68402C50.8363 6.62307 50.7767 6.57269 50.7086 6.53615ZM12.4175 47.6701L2.33288 37.6035L6.37635 33.5675L16.4602 43.6334L12.4175 47.6701ZM24.2624 38.4048L20.5604 38.9952C19.7856 39.1172 19.0695 39.4816 18.5154 40.0359L16.4696 42.0779L8.33065 33.9541L9.93952 32.3482C10.7731 31.5145 11.1596 30.2952 10.9711 29.0695C10.561 26.3844 11.3023 23.5592 12.998 21.3291L18.4965 14.4545C21.7679 17.0672 15.3292 20.6261 17.3687 22.6571C17.95 23.2388 18.9673 23.2396 19.5478 22.6571L28.6616 13.5626C28.9642 13.2641 29.3726 13.0971 29.7981 13.0978C30.2235 13.0986 30.6314 13.267 30.9329 13.5666C31.235 13.8681 31.4014 14.2695 31.4014 14.6978C31.4014 15.126 31.2358 15.5282 30.9329 15.8297L24.6662 22.084C24.6149 22.1352 24.5743 22.1959 24.5465 22.2628C24.5188 22.3296 24.5045 22.4013 24.5045 22.4736C24.5045 22.546 24.5188 22.6177 24.5465 22.6845C24.5743 22.7514 24.6149 22.8121 24.6662 22.8633C24.7175 22.9145 24.7783 22.9551 24.8453 22.9828C24.9123 23.0105 24.9841 23.0247 25.0566 23.0247C25.1291 23.0247 25.2009 23.0105 25.2679 22.9828C25.3349 22.9551 25.3957 22.9145 25.447 22.8633L33.0931 15.2323C33.3829 14.9454 33.7711 14.7793 34.1791 14.7674C34.587 14.7556 34.9842 14.899 35.2903 15.1685C35.9867 15.7825 35.9425 16.9239 35.269 17.5946L27.7183 25.1304C27.6671 25.1816 27.6264 25.2423 27.5986 25.3092C27.5709 25.3761 27.5566 25.4477 27.5566 25.5201C27.5566 25.5924 27.5709 25.6641 27.5986 25.731C27.6264 25.7978 27.6671 25.8586 27.7183 25.9097C27.7696 25.9609 27.8305 26.0015 27.8974 26.0292C27.9644 26.0569 28.0362 26.0711 28.1087 26.0711C28.1812 26.0711 28.253 26.0569 28.32 26.0292C28.387 26.0015 28.4478 25.9609 28.4991 25.9097L34.7666 19.6555C35.0564 19.3691 35.4442 19.203 35.8518 19.1907C36.2594 19.1784 36.6565 19.3209 36.963 19.5894C37.6626 20.2065 37.6129 21.348 36.9409 22.0186L30.7704 28.1776C30.7192 28.2288 30.6785 28.2896 30.6508 28.3564C30.623 28.4233 30.6087 28.4949 30.6087 28.5673C30.6087 28.6397 30.623 28.7113 30.6508 28.7782C30.6785 28.845 30.7192 28.9058 30.7704 28.957C30.8217 29.0081 30.8826 29.0487 30.9496 29.0764C31.0165 29.1041 31.0883 29.1184 31.1608 29.1184C31.2333 29.1184 31.3051 29.1041 31.3721 29.0764C31.4391 29.0487 31.5 29.0081 31.5512 28.957L36.1255 24.3912C36.2828 24.2356 36.4706 24.114 36.6771 24.0341C36.8837 23.9542 37.1045 23.9177 37.3258 23.9269C37.5472 23.9361 37.7642 23.9907 37.9634 24.0874C38.1626 24.1841 38.3397 24.3207 38.4836 24.4889C39.0246 25.1162 38.952 26.1042 38.3179 26.7379L29.5165 35.5229C28.0759 36.9638 26.2526 37.9634 24.2616 38.4041L24.2624 38.4048ZM46.4853 22.635C48.1044 30.3196 48.1865 35.0349 44.2534 40.5696C42.5247 39.418 36.2919 35.5568 30.8367 35.7646L39.0995 27.5172C40.1405 26.4789 40.2368 24.8329 39.3211 23.7701C38.8985 23.2761 38.3116 22.9505 37.6681 22.8531L37.7225 22.798C38.8361 21.6849 38.8818 19.809 37.6949 18.7636C37.2982 18.4127 36.8066 18.1866 36.2816 18.1134C37.1657 16.9853 37.1168 15.3086 36.0237 14.3427C35.153 13.5736 33.6357 13.3249 32.4787 14.301C32.3944 13.7269 32.126 13.1955 31.7137 12.7865C30.5969 11.6718 28.8848 11.7812 27.8808 12.7833L18.7678 21.8793C18.6849 21.9591 18.5742 22.0037 18.459 22.0037C18.3439 22.0037 18.2332 21.9591 18.1503 21.8793C18.0751 21.8045 18.0298 21.7048 18.023 21.599C18.0161 21.4932 18.0482 21.3885 18.1132 21.3047C19.1282 19.9963 22.2158 16.0139 19.1882 13.5949C19.0771 13.5052 18.9493 13.4385 18.8121 13.3987C18.6749 13.359 18.5311 13.347 18.3892 13.3635C18.103 13.395 17.8466 13.5359 17.6684 13.7571L14.7977 17.3301C14.519 16.8931 14.3009 16.4204 14.1494 15.925C13.468 13.6657 12.3852 7.9035 16.6424 2.34435C18.3222 3.71879 24.4312 8.03181 32.037 5.33568C39.2801 2.76943 47.5082 6.23308 49.655 7.24462C48.5138 9.12995 45.0082 15.6613 46.4853 22.635Z"/>
</mask>
<path d="M50.7086 6.53615C50.2961 6.31573 40.5041 1.1675 31.6664 4.29816C23.3965 7.22651 17.0138 1.21473 16.9507 1.15411C16.8957 1.10151 16.8303 1.06081 16.7588 1.03454C16.6873 1.00827 16.6111 0.996996 16.535 1.00143C16.459 1.00586 16.3846 1.0259 16.3166 1.0603C16.2487 1.09469 16.1885 1.14271 16.14 1.20134C11.1359 7.30602 12.341 13.7539 13.091 16.2422C13.304 16.9476 13.6376 17.6119 14.0737 18.2299L12.1281 20.6521C10.2439 23.1294 9.42453 26.2593 9.88195 29.2522C10.0176 30.1307 9.7534 30.9753 9.15796 31.5696L7.54672 33.1779L6.76595 32.3986C6.66022 32.2994 6.52062 32.2443 6.37556 32.2443C6.2305 32.2443 6.0909 32.2994 5.98517 32.3986L1.16172 37.2146C1.11045 37.2658 1.06978 37.3265 1.04203 37.3934C1.01428 37.4602 1 37.5319 1 37.6043C1 37.6766 1.01428 37.7483 1.04203 37.8152C1.06978 37.882 1.11045 37.9428 1.16172 37.9939L12.0263 48.8391C12.0776 48.8902 12.1384 48.9308 12.2054 48.9585C12.2724 48.9862 12.3442 49.0005 12.4167 49.0005C12.4892 49.0005 12.561 48.9862 12.628 48.9585C12.695 48.9308 12.7558 48.8902 12.8071 48.8391L17.6313 44.0238C17.6826 43.9726 17.7233 43.9119 17.751 43.845C17.7788 43.7782 17.7931 43.7065 17.7931 43.6342C17.7931 43.5618 17.7788 43.4901 17.751 43.4233C17.7233 43.3564 17.6826 43.2957 17.6313 43.2445L17.2473 42.8611L19.297 40.816C19.6861 40.426 20.1893 40.1697 20.7339 40.0839L24.4667 39.4864C26.3326 39.0787 28.0551 38.2269 29.511 37.0123C35.56 35.7984 43.9774 41.7158 44.0626 41.7772C44.1805 41.8608 44.3266 41.8949 44.4695 41.8723C44.6123 41.8496 44.7406 41.7719 44.8268 41.6559C49.3008 35.6292 49.259 30.4455 47.5642 22.4075C45.9475 14.771 50.8553 7.40363 50.9058 7.33121C50.9489 7.26719 50.9781 7.19486 50.9916 7.11887C51.005 7.04289 51.0024 6.96495 50.9838 6.89005C50.9652 6.81516 50.9311 6.74497 50.8837 6.68402C50.8363 6.62307 50.7767 6.57269 50.7086 6.53615ZM12.4175 47.6701L2.33288 37.6035L6.37635 33.5675L16.4602 43.6334L12.4175 47.6701ZM24.2624 38.4048L20.5604 38.9952C19.7856 39.1172 19.0695 39.4816 18.5154 40.0359L16.4696 42.0779L8.33065 33.9541L9.93952 32.3482C10.7731 31.5145 11.1596 30.2952 10.9711 29.0695C10.561 26.3844 11.3023 23.5592 12.998 21.3291L18.4965 14.4545C21.7679 17.0672 15.3292 20.6261 17.3687 22.6571C17.95 23.2388 18.9673 23.2396 19.5478 22.6571L28.6616 13.5626C28.9642 13.2641 29.3726 13.0971 29.7981 13.0978C30.2235 13.0986 30.6314 13.267 30.9329 13.5666C31.235 13.8681 31.4014 14.2695 31.4014 14.6978C31.4014 15.126 31.2358 15.5282 30.9329 15.8297L24.6662 22.084C24.6149 22.1352 24.5743 22.1959 24.5465 22.2628C24.5188 22.3296 24.5045 22.4013 24.5045 22.4736C24.5045 22.546 24.5188 22.6177 24.5465 22.6845C24.5743 22.7514 24.6149 22.8121 24.6662 22.8633C24.7175 22.9145 24.7783 22.9551 24.8453 22.9828C24.9123 23.0105 24.9841 23.0247 25.0566 23.0247C25.1291 23.0247 25.2009 23.0105 25.2679 22.9828C25.3349 22.9551 25.3957 22.9145 25.447 22.8633L33.0931 15.2323C33.3829 14.9454 33.7711 14.7793 34.1791 14.7674C34.587 14.7556 34.9842 14.899 35.2903 15.1685C35.9867 15.7825 35.9425 16.9239 35.269 17.5946L27.7183 25.1304C27.6671 25.1816 27.6264 25.2423 27.5986 25.3092C27.5709 25.3761 27.5566 25.4477 27.5566 25.5201C27.5566 25.5924 27.5709 25.6641 27.5986 25.731C27.6264 25.7978 27.6671 25.8586 27.7183 25.9097C27.7696 25.9609 27.8305 26.0015 27.8974 26.0292C27.9644 26.0569 28.0362 26.0711 28.1087 26.0711C28.1812 26.0711 28.253 26.0569 28.32 26.0292C28.387 26.0015 28.4478 25.9609 28.4991 25.9097L34.7666 19.6555C35.0564 19.3691 35.4442 19.203 35.8518 19.1907C36.2594 19.1784 36.6565 19.3209 36.963 19.5894C37.6626 20.2065 37.6129 21.348 36.9409 22.0186L30.7704 28.1776C30.7192 28.2288 30.6785 28.2896 30.6508 28.3564C30.623 28.4233 30.6087 28.4949 30.6087 28.5673C30.6087 28.6397 30.623 28.7113 30.6508 28.7782C30.6785 28.845 30.7192 28.9058 30.7704 28.957C30.8217 29.0081 30.8826 29.0487 30.9496 29.0764C31.0165 29.1041 31.0883 29.1184 31.1608 29.1184C31.2333 29.1184 31.3051 29.1041 31.3721 29.0764C31.4391 29.0487 31.5 29.0081 31.5512 28.957L36.1255 24.3912C36.2828 24.2356 36.4706 24.114 36.6771 24.0341C36.8837 23.9542 37.1045 23.9177 37.3258 23.9269C37.5472 23.9361 37.7642 23.9907 37.9634 24.0874C38.1626 24.1841 38.3397 24.3207 38.4836 24.4889C39.0246 25.1162 38.952 26.1042 38.3179 26.7379L29.5165 35.5229C28.0759 36.9638 26.2526 37.9634 24.2616 38.4041L24.2624 38.4048ZM46.4853 22.635C48.1044 30.3196 48.1865 35.0349 44.2534 40.5696C42.5247 39.418 36.2919 35.5568 30.8367 35.7646L39.0995 27.5172C40.1405 26.4789 40.2368 24.8329 39.3211 23.7701C38.8985 23.2761 38.3116 22.9505 37.6681 22.8531L37.7225 22.798C38.8361 21.6849 38.8818 19.809 37.6949 18.7636C37.2982 18.4127 36.8066 18.1866 36.2816 18.1134C37.1657 16.9853 37.1168 15.3086 36.0237 14.3427C35.153 13.5736 33.6357 13.3249 32.4787 14.301C32.3944 13.7269 32.126 13.1955 31.7137 12.7865C30.5969 11.6718 28.8848 11.7812 27.8808 12.7833L18.7678 21.8793C18.6849 21.9591 18.5742 22.0037 18.459 22.0037C18.3439 22.0037 18.2332 21.9591 18.1503 21.8793C18.0751 21.8045 18.0298 21.7048 18.023 21.599C18.0161 21.4932 18.0482 21.3885 18.1132 21.3047C19.1282 19.9963 22.2158 16.0139 19.1882 13.5949C19.0771 13.5052 18.9493 13.4385 18.8121 13.3987C18.6749 13.359 18.5311 13.347 18.3892 13.3635C18.103 13.395 17.8466 13.5359 17.6684 13.7571L14.7977 17.3301C14.519 16.8931 14.3009 16.4204 14.1494 15.925C13.468 13.6657 12.3852 7.9035 16.6424 2.34435C18.3222 3.71879 24.4312 8.03181 32.037 5.33568C39.2801 2.76943 47.5082 6.23308 49.655 7.24462C48.5138 9.12995 45.0082 15.6613 46.4853 22.635Z" fill="#8EB0EC"/>
<path d="M50.7086 6.53615C50.2961 6.31573 40.5041 1.1675 31.6664 4.29816C23.3965 7.22651 17.0138 1.21473 16.9507 1.15411C16.8957 1.10151 16.8303 1.06081 16.7588 1.03454C16.6873 1.00827 16.6111 0.996996 16.535 1.00143C16.459 1.00586 16.3846 1.0259 16.3166 1.0603C16.2487 1.09469 16.1885 1.14271 16.14 1.20134C11.1359 7.30602 12.341 13.7539 13.091 16.2422C13.304 16.9476 13.6376 17.6119 14.0737 18.2299L12.1281 20.6521C10.2439 23.1294 9.42453 26.2593 9.88195 29.2522C10.0176 30.1307 9.7534 30.9753 9.15796 31.5696L7.54672 33.1779L6.76595 32.3986C6.66022 32.2994 6.52062 32.2443 6.37556 32.2443C6.2305 32.2443 6.0909 32.2994 5.98517 32.3986L1.16172 37.2146C1.11045 37.2658 1.06978 37.3265 1.04203 37.3934C1.01428 37.4602 1 37.5319 1 37.6043C1 37.6766 1.01428 37.7483 1.04203 37.8152C1.06978 37.882 1.11045 37.9428 1.16172 37.9939L12.0263 48.8391C12.0776 48.8902 12.1384 48.9308 12.2054 48.9585C12.2724 48.9862 12.3442 49.0005 12.4167 49.0005C12.4892 49.0005 12.561 48.9862 12.628 48.9585C12.695 48.9308 12.7558 48.8902 12.8071 48.8391L17.6313 44.0238C17.6826 43.9726 17.7233 43.9119 17.751 43.845C17.7788 43.7782 17.7931 43.7065 17.7931 43.6342C17.7931 43.5618 17.7788 43.4901 17.751 43.4233C17.7233 43.3564 17.6826 43.2957 17.6313 43.2445L17.2473 42.8611L19.297 40.816C19.6861 40.426 20.1893 40.1697 20.7339 40.0839L24.4667 39.4864C26.3326 39.0787 28.0551 38.2269 29.511 37.0123C35.56 35.7984 43.9774 41.7158 44.0626 41.7772C44.1805 41.8608 44.3266 41.8949 44.4695 41.8723C44.6123 41.8496 44.7406 41.7719 44.8268 41.6559C49.3008 35.6292 49.259 30.4455 47.5642 22.4075C45.9475 14.771 50.8553 7.40363 50.9058 7.33121C50.9489 7.26719 50.9781 7.19486 50.9916 7.11887C51.005 7.04289 51.0024 6.96495 50.9838 6.89005C50.9652 6.81516 50.9311 6.74497 50.8837 6.68402C50.8363 6.62307 50.7767 6.57269 50.7086 6.53615ZM12.4175 47.6701L2.33288 37.6035L6.37635 33.5675L16.4602 43.6334L12.4175 47.6701ZM24.2624 38.4048L20.5604 38.9952C19.7856 39.1172 19.0695 39.4816 18.5154 40.0359L16.4696 42.0779L8.33065 33.9541L9.93952 32.3482C10.7731 31.5145 11.1596 30.2952 10.9711 29.0695C10.561 26.3844 11.3023 23.5592 12.998 21.3291L18.4965 14.4545C21.7679 17.0672 15.3292 20.6261 17.3687 22.6571C17.95 23.2388 18.9673 23.2396 19.5478 22.6571L28.6616 13.5626C28.9642 13.2641 29.3726 13.0971 29.7981 13.0978C30.2235 13.0986 30.6314 13.267 30.9329 13.5666C31.235 13.8681 31.4014 14.2695 31.4014 14.6978C31.4014 15.126 31.2358 15.5282 30.9329 15.8297L24.6662 22.084C24.6149 22.1352 24.5743 22.1959 24.5465 22.2628C24.5188 22.3296 24.5045 22.4013 24.5045 22.4736C24.5045 22.546 24.5188 22.6177 24.5465 22.6845C24.5743 22.7514 24.6149 22.8121 24.6662 22.8633C24.7175 22.9145 24.7783 22.9551 24.8453 22.9828C24.9123 23.0105 24.9841 23.0247 25.0566 23.0247C25.1291 23.0247 25.2009 23.0105 25.2679 22.9828C25.3349 22.9551 25.3957 22.9145 25.447 22.8633L33.0931 15.2323C33.3829 14.9454 33.7711 14.7793 34.1791 14.7674C34.587 14.7556 34.9842 14.899 35.2903 15.1685C35.9867 15.7825 35.9425 16.9239 35.269 17.5946L27.7183 25.1304C27.6671 25.1816 27.6264 25.2423 27.5986 25.3092C27.5709 25.3761 27.5566 25.4477 27.5566 25.5201C27.5566 25.5924 27.5709 25.6641 27.5986 25.731C27.6264 25.7978 27.6671 25.8586 27.7183 25.9097C27.7696 25.9609 27.8305 26.0015 27.8974 26.0292C27.9644 26.0569 28.0362 26.0711 28.1087 26.0711C28.1812 26.0711 28.253 26.0569 28.32 26.0292C28.387 26.0015 28.4478 25.9609 28.4991 25.9097L34.7666 19.6555C35.0564 19.3691 35.4442 19.203 35.8518 19.1907C36.2594 19.1784 36.6565 19.3209 36.963 19.5894C37.6626 20.2065 37.6129 21.348 36.9409 22.0186L30.7704 28.1776C30.7192 28.2288 30.6785 28.2896 30.6508 28.3564C30.623 28.4233 30.6087 28.4949 30.6087 28.5673C30.6087 28.6397 30.623 28.7113 30.6508 28.7782C30.6785 28.845 30.7192 28.9058 30.7704 28.957C30.8217 29.0081 30.8826 29.0487 30.9496 29.0764C31.0165 29.1041 31.0883 29.1184 31.1608 29.1184C31.2333 29.1184 31.3051 29.1041 31.3721 29.0764C31.4391 29.0487 31.5 29.0081 31.5512 28.957L36.1255 24.3912C36.2828 24.2356 36.4706 24.114 36.6771 24.0341C36.8837 23.9542 37.1045 23.9177 37.3258 23.9269C37.5472 23.9361 37.7642 23.9907 37.9634 24.0874C38.1626 24.1841 38.3397 24.3207 38.4836 24.4889C39.0246 25.1162 38.952 26.1042 38.3179 26.7379L29.5165 35.5229C28.0759 36.9638 26.2526 37.9634 24.2616 38.4041L24.2624 38.4048ZM46.4853 22.635C48.1044 30.3196 48.1865 35.0349 44.2534 40.5696C42.5247 39.418 36.2919 35.5568 30.8367 35.7646L39.0995 27.5172C40.1405 26.4789 40.2368 24.8329 39.3211 23.7701C38.8985 23.2761 38.3116 22.9505 37.6681 22.8531L37.7225 22.798C38.8361 21.6849 38.8818 19.809 37.6949 18.7636C37.2982 18.4127 36.8066 18.1866 36.2816 18.1134C37.1657 16.9853 37.1168 15.3086 36.0237 14.3427C35.153 13.5736 33.6357 13.3249 32.4787 14.301C32.3944 13.7269 32.126 13.1955 31.7137 12.7865C30.5969 11.6718 28.8848 11.7812 27.8808 12.7833L18.7678 21.8793C18.6849 21.9591 18.5742 22.0037 18.459 22.0037C18.3439 22.0037 18.2332 21.9591 18.1503 21.8793C18.0751 21.8045 18.0298 21.7048 18.023 21.599C18.0161 21.4932 18.0482 21.3885 18.1132 21.3047C19.1282 19.9963 22.2158 16.0139 19.1882 13.5949C19.0771 13.5052 18.9493 13.4385 18.8121 13.3987C18.6749 13.359 18.5311 13.347 18.3892 13.3635C18.103 13.395 17.8466 13.5359 17.6684 13.7571L14.7977 17.3301C14.519 16.8931 14.3009 16.4204 14.1494 15.925C13.468 13.6657 12.3852 7.9035 16.6424 2.34435C18.3222 3.71879 24.4312 8.03181 32.037 5.33568C39.2801 2.76943 47.5082 6.23308 49.655 7.24462C48.5138 9.12995 45.0082 15.6613 46.4853 22.635Z" stroke="#8EB0EC" mask="url(#path-1-outside-1_373_7115)"/>
</svg>
